<svg width="20" height="26" viewBox="0 0 20 26" fill="none" xmlns="http://www.w3.org/2000/svg">
<path d="M17.5668 5.50309L18.4399 5.01559L17.5668 5.50309C19.4005 8.78722 18.9185 12.917 16.3839 15.6579L17.1181 16.3368L16.3839 15.6579C16.1188 15.9445 15.8277 16.2089 15.4993 16.5072C15.4558 16.5468 15.4116 16.5869 15.3668 16.6278C14.765 17.1758 14.3231 17.8221 14.0789 18.5674H5.59422C5.31648 17.7115 4.788 16.9958 4.09699 16.3847L3.44145 17.126L4.09698 16.3847C2.69504 15.1449 1.78742 13.7823 1.33781 12.325C0.888802 10.8695 0.877283 9.25727 1.36412 7.48465C2.31948 4.00607 4.65456 1.8968 8.26606 1.16773C11.9464 0.424776 15.7243 2.2031 17.5668 5.50309Z" stroke="#3F3F3F" stroke-width="2"/>
<path d="M5.79643 19.3996H13.8583C13.8631 20.4176 13.8641 21.4318 13.8528 22.4445C13.8438 23.258 13.592 23.8225 13.2356 24.1835C12.88 24.5436 12.3249 24.798 11.5226 24.8107C10.3783 24.8287 9.23596 24.8311 8.09665 24.8098L8.09664 24.8098C7.32539 24.7954 6.77895 24.5439 6.42379 24.185C6.0677 23.8252 5.81809 23.2706 5.80489 22.4915C5.79759 22.0607 5.79939 21.6376 5.80124 21.2024C5.80214 20.9902 5.80305 20.775 5.80293 20.5548V20.5547C5.80281 20.3702 5.80096 20.1963 5.79917 20.0285C5.79687 19.8119 5.79467 19.6055 5.79643 19.3996Z" stroke="#3F3F3F" stroke-width="2"/>
<path d="M6.56409 13.8554C8.45548 13.9633 12.1302 13.2726 11.6979 9.64619C11.2655 6.0198 8.81578 5.76093 8.18528 8.02717C7.37468 10.9411 8.88779 13.8554 13.8594 13.8554" stroke="#3F3F3F" stroke-width="2" stroke-linecap="round"/>
</svg>
