<svg width="30" height="30" viewBox="0 0 30 30" fill="none" xmlns="http://www.w3.org/2000/svg">
<path d="M15 27.5C16.0302 27.5 16.9201 26.8684 17.3016 25.9733C17.5182 25.4653 17.0523 25 16.5 25H13.5C12.9477 25 12.4818 25.4653 12.6984 25.9733C13.0799 26.8684 13.9698 27.5 15 27.5ZM22.7929 20.2929C22.6054 20.1054 22.5 19.851 22.5 19.5858V13.75C22.5 10.192 20.7485 7.17123 17.6339 6.07263C17.1969 5.91845 16.875 5.52272 16.875 5.05925V5C16.875 3.9625 16.0375 3.125 15 3.125C13.9625 3.125 13.125 3.9625 13.125 5V5.05989C13.125 5.52306 12.8035 5.91864 12.3668 6.073C9.26169 7.17055 7.5 10.181 7.5 13.75V19.5858C7.5 19.851 7.39464 20.1054 7.20711 20.2929L5.25888 22.2411C5.09312 22.4069 5 22.6317 5 22.8661C5 23.3543 5.39573 23.75 5.88388 23.75H24.1161C24.6043 23.75 25 23.3543 25 22.8661C25 22.6317 24.9069 22.4069 24.7411 22.2411L22.7929 20.2929ZM20 20.25C20 20.8023 19.5523 21.25 19 21.25H11C10.4477 21.25 10 20.8023 10 20.25V13.75C10 10.65 11.8875 8.125 15 8.125C18.1125 8.125 20 10.65 20 13.75V20.25Z" fill="#3F3F3F"/>
</svg>