<svg width="15" height="15" viewBox="0 0 15 15" fill="none" xmlns="http://www.w3.org/2000/svg">
<g clip-path="url(#clip0_657_17146)">
<path d="M11.9313 9.31875L9.06875 12.1813C8.825 12.425 8.425 12.425 8.18125 12.1813C7.9375 11.9375 7.9375 11.5375 8.18125 11.2938L9.98125 9.5H3.625C3.28125 9.5 3 9.21875 3 8.875V2.625C3 2.28125 3.28125 2 3.625 2C3.96875 2 4.25 2.28125 4.25 2.625V8.25H9.98125L8.18125 6.45625C7.9375 6.2125 7.9375 5.8125 8.18125 5.56875C8.425 5.325 8.825 5.325 9.06875 5.56875L11.9313 8.43125C12.175 8.675 12.175 9.075 11.9313 9.31875Z" fill="#25E3C0"/>
</g>
<defs>
<clipPath id="clip0_657_17146">
<rect width="15" height="15" fill="white"/>
</clipPath>
</defs>
</svg>
