<svg width="15" height="16" viewBox="0 0 15 16" fill="none" xmlns="http://www.w3.org/2000/svg">
<g clip-path="url(#clip0_945_11291)">
<path d="M5.625 13.625H11.25C11.7688 13.625 12.2125 13.3125 12.4 12.8625L14.2875 8.45625C14.3438 8.3125 14.375 8.1625 14.375 8V6.75C14.375 6.0625 13.8125 5.5 13.125 5.5H9.18125L9.775 2.64375L9.79375 2.44375C9.79375 2.1875 9.6875 1.95 9.51875 1.78125C9.15236 1.41831 8.56154 1.41971 8.19687 1.78438L4.7375 5.24375C4.5125 5.46875 4.375 5.78125 4.375 6.125V12.375C4.375 13.0625 4.9375 13.625 5.625 13.625ZM5.625 6.125L8.3375 3.4125L7.81201 5.50661C7.65358 6.13797 8.13101 6.75 8.78194 6.75H13.125V8L11.25 12.375H5.625V6.125ZM0.625 6.125H3.125V13.625H0.625V6.125Z" fill="#01C3FF"/>
<path d="M9 2.5L8.5 5.5V6.5H13.5V8.5L11.5 13L5.5 12.5V5.5L9 2.5Z" fill="#01C3FF"/>
</g>
<defs>
<clipPath id="clip0_945_11291">
<rect width="15" height="15" fill="white" transform="translate(0 0.5)"/>
</clipPath>
</defs>
</svg>
