<svg width="15" height="15" viewBox="0 0 15 15" fill="none" xmlns="http://www.w3.org/2000/svg">
<path d="M7.5 4.375C7.84375 4.375 8.125 4.65625 8.125 5V7.5C8.125 7.84375 7.84375 8.125 7.5 8.125C7.15625 8.125 6.875 7.84375 6.875 7.5V5C6.875 4.65625 7.15625 4.375 7.5 4.375ZM7.49375 1.25C4.04375 1.25 1.25 4.05 1.25 7.5C1.25 10.95 4.04375 13.75 7.49375 13.75C10.95 13.75 13.75 10.95 13.75 7.5C13.75 4.05 10.95 1.25 7.49375 1.25ZM7.5 12.5C4.7375 12.5 2.5 10.2625 2.5 7.5C2.5 4.7375 4.7375 2.5 7.5 2.5C10.2625 2.5 12.5 4.7375 12.5 7.5C12.5 10.2625 10.2625 12.5 7.5 12.5ZM8.125 10.625H6.875V9.375H8.125V10.625Z" fill="#FF5757"/>
</svg>
