<svg width="30" height="30" viewBox="0 0 30 30" fill="none" xmlns="http://www.w3.org/2000/svg">
<path d="M7.21602 23.0308H8.76723L18.3238 13.4606L16.7726 11.9072L7.21602 21.4774V23.0308ZM23.0605 11.8517L18.3515 7.19144L19.9027 5.63801C20.3274 5.21267 20.8493 5 21.4683 5C22.0866 5 22.6081 5.21267 23.0328 5.63801L24.584 7.19144C25.0088 7.61678 25.2304 8.13015 25.2488 8.73155C25.2673 9.33221 25.0642 9.84521 24.6394 10.2705L23.0605 11.8517ZM6.10801 25.25C5.79407 25.25 5.53111 25.1435 5.31911 24.9304C5.10637 24.7181 5 24.4548 5 24.1404V21.0058C5 20.8579 5.0277 20.7147 5.0831 20.5764C5.1385 20.4373 5.2216 20.3123 5.3324 20.2014L16.7449 8.7726L21.4539 13.4884L10.0414 24.9171C9.93064 25.0281 9.80617 25.1113 9.66804 25.1668C9.52917 25.2223 9.38586 25.25 9.23813 25.25H6.10801ZM17.5482 12.6839L16.7726 11.9072L18.3238 13.4606L17.5482 12.6839Z" fill="#3F3F3F"/>
</svg>
