<svg width="32" height="32" viewBox="0 0 32 32" fill="none" xmlns="http://www.w3.org/2000/svg">
<rect x="0.333333" y="0.333333" width="31.3333" height="31.3333" rx="7.66667" fill="#FFE1B5"/>
<rect x="0.333333" y="0.333333" width="31.3333" height="31.3333" rx="7.66667" stroke="#EFEFEF" stroke-width="0.666667"/>
<g clip-path="url(#clip0_1488_11687)">
<path d="M7.30275 31.5247C7.86328 28.3161 10.3844 21.7598 15.8782 21.3578C23.803 20.778 26.451 28.838 26.8183 32.5684C27.2744 37.2016 6.38614 36.7715 7.30275 31.5247Z" fill="#2A2A2A" stroke="#2A2A2A" stroke-width="0.260937" stroke-miterlimit="10" stroke-linecap="round"/>
<path d="M14.4104 26.2969C13.9091 27.1482 13.3719 28.2032 12.9028 29.4539C12.4229 30.7334 12.1309 31.9065 11.9492 32.8944" stroke="white" stroke-width="0.260937" stroke-miterlimit="10" stroke-linecap="round"/>
<path d="M21.5234 25.0078C22.0537 25.7665 22.6638 26.8076 23.1342 28.1262C23.8808 30.2193 23.9411 32.0745 23.8815 33.2547" stroke="white" stroke-width="0.260937" stroke-miterlimit="10" stroke-linecap="round"/>
<path d="M20.3391 21.3807C20.5431 22.5608 19.4762 23.7695 17.8951 24.0428C16.3141 24.3161 14.9034 23.5356 14.6994 22.3556C14.4954 21.1755 15.5622 19.9668 17.1433 19.6935C18.7244 19.4202 20.1351 20.2006 20.3391 21.3807Z" fill="white" stroke="#2A2A2A" stroke-width="0.194726"/>
<path d="M23.8782 10.1201C23.4339 9.71109 22.8458 10.3573 21.7037 9.8302C21.3268 9.65624 18.8044 4.95937 12.5999 6.91157C9.40075 7.91815 6.01849 12.2946 7.52613 17.6003C8.76123 21.9469 13.8889 23.7465 17.4707 22.848C26.0237 20.7026 25.8055 11.8943 23.8782 10.1201Z" fill="white" stroke="#2A2A2A" stroke-width="0.260937" stroke-miterlimit="10" stroke-linecap="round"/>
<path d="M10.1664 18.197C10.0356 18.3673 9.42705 19.16 8.49775 19.2422C7.15418 19.361 5.76678 17.9392 5.60061 16.4081C5.41408 14.6895 6.40877 13.1719 7.8223 13.0185C8.93996 12.8972 9.83535 13.8463 9.95301 13.9759" fill="white"/>
<path d="M10.1664 18.197C10.0356 18.3673 9.42705 19.16 8.49775 19.2422C7.15418 19.361 5.76678 17.9392 5.60061 16.4081C5.41408 14.6895 6.40877 13.1719 7.8223 13.0185C8.93996 12.8972 9.83535 13.8463 9.95301 13.9759" stroke="#2A2A2A" stroke-width="0.260937" stroke-miterlimit="10" stroke-linecap="round"/>
<path d="M6.54297 15.8531C6.75715 15.7062 7.22629 15.4274 7.88631 15.3699C8.68045 15.3006 9.27604 15.5929 9.50025 15.7178" stroke="#2A2A2A" stroke-width="0.260937" stroke-miterlimit="10" stroke-linecap="round"/>
<path d="M17.8039 12.6468C18.1443 12.6468 18.4203 12.3709 18.4203 12.0304C18.4203 11.69 18.1443 11.4141 17.8039 11.4141C17.4635 11.4141 17.1875 11.69 17.1875 12.0304C17.1875 12.3709 17.4635 12.6468 17.8039 12.6468Z" fill="#2A2A2A"/>
<path d="M19.6515 11.7171C19.992 11.7171 20.2679 11.4412 20.2679 11.1008C20.2679 10.7603 19.992 10.4844 19.6515 10.4844C19.3111 10.4844 19.0352 10.7603 19.0352 11.1008C19.0352 11.4412 19.3111 11.7171 19.6515 11.7171Z" fill="#2A2A2A"/>
<path d="M17.5548 11.0107C17.3147 10.9944 17.0211 11.0494 16.8203 11.1243" stroke="#2A2A2A" stroke-width="0.260937" stroke-miterlimit="10" stroke-linecap="round"/>
<path d="M18.9492 10.1598C19.035 9.99047 19.181 9.77641 19.3229 9.625" stroke="#2A2A2A" stroke-width="0.260937" stroke-miterlimit="10" stroke-linecap="round"/>
<path d="M14.7659 8.8663C15.0725 9.10454 15.4476 9.23557 15.8363 9.24152C16.2126 9.24728 16.5892 9.13208 16.8977 8.91633C17.2072 8.69988 17.4722 8.38461 17.5598 8.01047C17.6026 7.82744 17.6024 7.63572 17.5556 7.45343C17.5057 7.25915 17.4039 7.09078 17.2784 6.93655C17.0473 6.65278 16.7132 6.36879 16.3213 6.43037C15.9975 6.48126 15.7952 6.8004 15.7967 7.11204C15.7985 7.49998 16.0703 7.83153 16.3573 8.06403C16.6672 8.31505 17.0443 8.49295 17.4473 8.51085C17.8379 8.52821 18.2308 8.39215 18.5394 8.15493C18.6943 8.03583 18.8304 7.89883 18.9485 7.74306C19.0629 7.59214 19.1569 7.42016 19.2057 7.23638C19.2294 7.14726 19.2422 7.05388 19.241 6.96163C19.2402 6.90479 19.1915 6.85025 19.1323 6.85291C19.074 6.85551 19.0227 6.9007 19.0235 6.96163C19.0238 6.98116 19.0236 7.00067 19.0225 7.02017C19.0219 7.03133 19.0211 7.04248 19.02 7.05361C19.0197 7.05779 19.0192 7.06197 19.0188 7.06614C19.0173 7.07971 19.018 7.08047 19.019 7.06645C19.0161 7.10797 19.0038 7.15104 18.9927 7.19095C18.9815 7.23119 18.9678 7.27074 18.9522 7.30949C18.9509 7.31269 18.9437 7.32991 18.9494 7.31669C18.9546 7.30433 18.9488 7.31791 18.9479 7.3198C18.9431 7.3305 18.9384 7.34119 18.9334 7.3518C18.9239 7.3718 18.914 7.39157 18.9036 7.4111C18.8622 7.48906 18.8137 7.56279 18.7607 7.63331C18.7485 7.64961 18.7588 7.63584 18.7612 7.63271C18.7585 7.63625 18.7557 7.63979 18.7529 7.64332C18.7464 7.65154 18.7398 7.65971 18.7331 7.66782C18.718 7.68631 18.7025 7.70451 18.6867 7.72243C18.6574 7.75566 18.6269 7.78791 18.5955 7.81915C18.5659 7.84861 18.5353 7.87718 18.5039 7.90477C18.4881 7.91866 18.4721 7.93232 18.4558 7.94571C18.4484 7.95185 18.4409 7.95794 18.4333 7.96397C18.4301 7.96653 18.4269 7.96907 18.4237 7.97163C18.4076 7.98448 18.4338 7.96415 18.4232 7.97211C18.3526 8.02518 18.2791 8.07383 18.2014 8.11597C18.1614 8.13765 18.1206 8.15769 18.079 8.17601C18.0734 8.17844 18.0679 8.18083 18.0623 8.18323C18.0636 8.18269 18.079 8.17649 18.0674 8.18102C18.0575 8.18486 18.0478 8.18896 18.0379 8.19279C18.0154 8.20153 17.9927 8.20976 17.9698 8.21747C17.8856 8.24585 17.799 8.26721 17.7113 8.28088C17.7029 8.28218 17.6777 8.28657 17.7 8.28271C17.6896 8.2845 17.679 8.28528 17.6686 8.2864C17.6446 8.28896 17.6206 8.29095 17.5966 8.29234C17.5529 8.29488 17.5091 8.29549 17.4654 8.2941C17.4204 8.29266 17.3738 8.29098 17.3293 8.28328C17.3516 8.28713 17.3256 8.28261 17.3175 8.28134C17.3069 8.27967 17.2963 8.27789 17.2858 8.27598C17.2616 8.27161 17.2375 8.26658 17.2136 8.26096C17.1265 8.24047 17.0411 8.21273 16.9582 8.17882C16.954 8.1771 16.9498 8.17536 16.9456 8.17361C16.9657 8.18199 16.9506 8.17568 16.9465 8.17384C16.9368 8.16948 16.9271 8.16526 16.9174 8.16085C16.8953 8.15075 16.8734 8.14022 16.8518 8.12927C16.8124 8.10941 16.7738 8.08817 16.7359 8.06567C16.6967 8.04236 16.6582 8.01769 16.6207 7.99179C16.6031 7.97969 16.5857 7.96732 16.5686 7.95469C16.56 7.94838 16.5514 7.942 16.543 7.93555C16.5404 7.93364 16.5252 7.92176 16.5358 7.93014C16.547 7.93893 16.5251 7.92156 16.5253 7.92171C16.4558 7.86635 16.3894 7.80681 16.3273 7.7432C16.2963 7.71139 16.2664 7.67849 16.2379 7.64435C16.2313 7.6364 16.2247 7.62838 16.2182 7.62028C16.2155 7.61681 16.2128 7.6133 16.21 7.60984C16.1999 7.59733 16.2202 7.62376 16.2107 7.61077C16.1977 7.59285 16.1845 7.57516 16.172 7.55685C16.1472 7.52046 16.1243 7.48279 16.1038 7.44384C16.0942 7.42575 16.0852 7.40739 16.0767 7.38876C16.0743 7.38345 16.072 7.3781 16.0696 7.37276C16.0712 7.37625 16.0779 7.39342 16.0705 7.37449C16.0663 7.36362 16.062 7.35275 16.0581 7.34176C16.044 7.3023 16.0326 7.26185 16.0244 7.22075C16.0226 7.21198 16.021 7.20318 16.0196 7.19435C16.019 7.19098 16.0168 7.1832 16.0173 7.17933C16.0171 7.18136 16.0203 7.20587 16.0184 7.1858C16.0166 7.16731 16.0151 7.14888 16.0145 7.13032C16.0139 7.11337 16.014 7.0964 16.0147 7.07946C16.0151 7.07111 16.0156 7.06277 16.0163 7.05443C16.0166 7.0497 16.0171 7.04498 16.0175 7.04026C16.0179 7.03621 16.0207 7.01518 16.0181 7.03366C16.0156 7.05131 16.0195 7.02548 16.0204 7.02039C16.0218 7.01241 16.0233 7.00445 16.025 6.99653C16.0286 6.97975 16.0329 6.96311 16.0379 6.94668C16.0427 6.93048 16.0484 6.91461 16.0544 6.8988C16.0633 6.87552 16.0471 6.91385 16.0552 6.89708C16.059 6.88911 16.0626 6.88105 16.0666 6.87316C16.0735 6.85949 16.081 6.84609 16.089 6.83301C16.0966 6.82054 16.1143 6.8037 16.118 6.78995C16.1182 6.78956 16.1035 6.80795 16.1109 6.79918C16.1136 6.79589 16.1162 6.79248 16.119 6.78918C16.1238 6.78342 16.1287 6.77776 16.1337 6.7722C16.1451 6.75957 16.1571 6.74749 16.1697 6.73602C16.1744 6.73174 16.1792 6.72754 16.1841 6.72343C16.1873 6.7207 16.1906 6.71807 16.1939 6.71535C16.2023 6.70832 16.2023 6.71501 16.1869 6.72069C16.2003 6.71577 16.2141 6.70161 16.2265 6.69412C16.2392 6.68643 16.2523 6.6793 16.2657 6.67279C16.2722 6.66961 16.2799 6.6672 16.2861 6.66343C16.2598 6.67945 16.2831 6.66502 16.2931 6.66155C16.3234 6.65102 16.3558 6.64884 16.3858 6.63905C16.3635 6.64632 16.3677 6.64113 16.3769 6.64045C16.3815 6.64012 16.386 6.63958 16.3905 6.63923C16.3985 6.63862 16.4065 6.6382 16.4146 6.63795C16.4322 6.6374 16.4498 6.63773 16.4674 6.63888C16.4758 6.63944 16.4841 6.64047 16.4926 6.64112C16.5075 6.64229 16.4706 6.63755 16.4855 6.64007C16.4892 6.64069 16.4929 6.64119 16.4965 6.6418C16.5166 6.64518 16.5366 6.64956 16.5563 6.65486C16.5743 6.65972 16.5922 6.66534 16.6098 6.67163C16.6192 6.675 16.6284 6.67887 16.6377 6.68229C16.6529 6.68785 16.6218 6.67492 16.6365 6.6817C16.6432 6.68481 16.6501 6.68773 16.6568 6.69088C16.6958 6.7091 16.7334 6.7301 16.7697 6.75328C16.7872 6.76449 16.8044 6.7762 16.8213 6.78837C16.8298 6.79446 16.8381 6.80074 16.8464 6.80697C16.8292 6.79411 16.8421 6.80361 16.8456 6.80644C16.8514 6.81116 16.8572 6.81578 16.863 6.82052C16.8965 6.8481 16.9287 6.87729 16.9597 6.90764C17.0236 6.97024 17.0825 7.03775 17.1385 7.10751C17.1449 7.11552 17.1512 7.12365 17.1577 7.13165C17.1651 7.1408 17.1558 7.12918 17.1549 7.12802C17.1587 7.13302 17.1625 7.13799 17.1662 7.14302C17.1808 7.16284 17.1949 7.18308 17.2084 7.20373C17.2321 7.24007 17.2539 7.27767 17.2735 7.31638C17.2834 7.33594 17.2922 7.3559 17.3014 7.37579C17.2934 7.35848 17.3003 7.37322 17.3037 7.38178C17.3085 7.39376 17.313 7.40582 17.3174 7.41795C17.3311 7.45651 17.3427 7.49585 17.3519 7.53575C17.3566 7.55613 17.3607 7.57665 17.3642 7.59728C17.3658 7.60683 17.3676 7.61646 17.3686 7.6261C17.3683 7.62277 17.3658 7.60164 17.3678 7.62194C17.3684 7.62745 17.3691 7.63295 17.3696 7.63846C17.3737 7.6797 17.3752 7.7212 17.3742 7.76263C17.3738 7.78198 17.3728 7.80132 17.3713 7.82062C17.3706 7.83029 17.3697 7.83995 17.3686 7.8496C17.368 7.85511 17.3673 7.86062 17.3667 7.86614C17.3651 7.88203 17.371 7.83909 17.3667 7.86617C17.3603 7.90635 17.3523 7.94614 17.3419 7.98547C17.3309 8.02683 17.3175 8.06755 17.3019 8.10743C17.2989 8.11512 17.2895 8.13776 17.2981 8.11765C17.2941 8.12703 17.29 8.13637 17.2857 8.14565C17.2765 8.16574 17.2668 8.18558 17.2566 8.20516C17.2357 8.24522 17.2126 8.28416 17.1877 8.32188C17.1758 8.33992 17.1635 8.35767 17.1508 8.37514C17.1437 8.38482 17.1365 8.39433 17.1293 8.40391C17.1429 8.38571 17.125 8.4092 17.1198 8.4157C17.0668 8.48148 17.0088 8.54322 16.9466 8.60039C16.915 8.62947 16.8823 8.65737 16.8486 8.68402C16.8453 8.68668 16.8419 8.68933 16.8385 8.69198C16.8563 8.67801 16.8439 8.68784 16.8401 8.69067C16.832 8.69664 16.824 8.70269 16.8159 8.7086C16.7974 8.72209 16.7786 8.73523 16.7596 8.74799C16.6894 8.79504 16.6158 8.83702 16.5396 8.87342C16.5215 8.88206 16.5032 8.89024 16.4849 8.89838C16.4803 8.90043 16.4664 8.90757 16.4872 8.89753C16.4833 8.89938 16.4792 8.90083 16.4753 8.90244C16.4633 8.90732 16.4514 8.91207 16.4393 8.91667C16.4005 8.93151 16.3612 8.94493 16.3215 8.95688C16.28 8.96934 16.2381 8.98019 16.1957 8.98939C16.1757 8.99376 16.1555 8.99776 16.1353 9.00139C16.1252 9.0032 16.115 9.00493 16.1049 9.00656C16.0991 9.00749 16.0933 9.00839 16.0875 9.00926C16.0843 9.00974 16.0596 9.01317 16.0758 9.01101C16.0901 9.0091 16.0589 9.01301 16.0554 9.01341C16.0452 9.01456 16.035 9.01562 16.0248 9.01659C16.0029 9.01866 15.981 9.02032 15.9591 9.02156C15.9153 9.02403 15.8714 9.02481 15.8275 9.02391C15.7837 9.02302 15.7399 9.02045 15.6963 9.01621C15.6861 9.01523 15.6759 9.01414 15.6658 9.01297C15.6614 9.01247 15.6571 9.01193 15.6527 9.01142C15.6321 9.00901 15.6519 9.01151 15.6556 9.0119C15.6339 9.00957 15.6122 9.00546 15.5907 9.00164C15.5046 8.98632 15.4196 8.96437 15.3369 8.93589C15.3176 8.92924 15.2984 8.92224 15.2793 8.91489C15.2698 8.91121 15.2604 8.90733 15.2509 8.9036C15.2464 8.90184 15.2317 8.89544 15.2526 8.90445C15.2473 8.90214 15.2419 8.89984 15.2366 8.89749C15.1964 8.87988 15.157 8.86064 15.1185 8.83983C15.0824 8.82035 15.0471 8.79949 15.0127 8.77728C14.9942 8.76534 14.9759 8.75301 14.9579 8.74031C14.9495 8.73437 14.9412 8.72836 14.9329 8.72225C14.9275 8.71826 14.9009 8.69791 14.9197 8.71254C14.8959 8.69403 14.8743 8.68069 14.8428 8.68069C14.8161 8.68069 14.7843 8.69254 14.7659 8.71254C14.7302 8.75148 14.718 8.82903 14.7659 8.8663Z" fill="#2A2A2A"/>
<path d="M23.6743 8.19023C23.6753 8.25548 23.5901 8.28117 23.5548 8.22629L22.643 6.80938C22.6318 6.79197 22.613 6.78094 22.5923 6.77971L21.2644 6.70034C21.2041 6.69674 21.181 6.62005 21.2292 6.58371L22.2915 5.78299C22.308 5.77053 22.3176 5.75093 22.3173 5.73022L22.2931 4.04544C22.2921 3.9802 22.3773 3.95451 22.4126 4.00938L23.3244 5.4263C23.3356 5.44371 23.3544 5.45473 23.3751 5.45597L24.703 5.53533C24.7633 5.53894 24.7864 5.61563 24.7382 5.65196L23.6759 6.45268C23.6594 6.46515 23.6498 6.48475 23.6501 6.50545L23.6743 8.19023Z" fill="white" stroke="#2A2A2A" stroke-width="0.259635" stroke-miterlimit="10"/>
<path d="M5.72973 28.0755C5.73067 28.1407 5.64555 28.1664 5.61024 28.1115L5.07759 27.2838C5.06639 27.2664 5.04755 27.2554 5.02688 27.2542L4.25266 27.2079C4.19241 27.2043 4.16927 27.1276 4.21747 27.0913L4.83683 26.6244C4.85336 26.6119 4.86296 26.5923 4.86266 26.5716L4.8485 25.5875C4.84756 25.5222 4.93267 25.4965 4.96798 25.5514L5.50063 26.3791C5.51183 26.3965 5.53067 26.4075 5.55134 26.4088L6.32556 26.455C6.38581 26.4586 6.40896 26.5353 6.36076 26.5717L5.74139 27.0385C5.72486 27.051 5.71526 27.0706 5.71556 27.0913L5.72973 28.0755Z" fill="white" stroke="#2A2A2A" stroke-width="0.259635" stroke-miterlimit="10"/>
<path d="M6.66495 24.9703C6.82577 24.718 7.39431 24.0434 8.38186 23.3638" stroke="#2A2A2A" stroke-width="0.259635" stroke-linecap="round"/>
<path d="M6.06707 24.529C6.18854 24.3022 6.61787 23.7137 7.36341 23.174" stroke="#2A2A2A" stroke-width="0.259635" stroke-linecap="round"/>
</g>
<defs>
<clipPath id="clip0_1488_11687">
<rect width="28.43" height="29.5984" fill="white" transform="translate(1.81641 2.39844)"/>
</clipPath>
</defs>
</svg>
