<svg width="28" height="28" viewBox="0 0 28 28" fill="none" xmlns="http://www.w3.org/2000/svg">
<path d="M3 22.6848V6.27156C3 5.80863 3.18938 5.45595 3.56815 5.21354C3.94692 4.97197 4.34672 4.93536 4.76758 5.1037L24.2109 13.3103C24.737 13.5418 25 13.9311 25 14.4782C25 15.0253 24.737 15.4146 24.2109 15.646L4.76758 23.8526C4.34672 24.021 3.94692 23.9839 3.56815 23.7415C3.18938 23.5 3 23.1477 3 22.6848ZM5.52511 20.7909L20.4864 14.4782L5.52511 8.16539V12.5843L13.1004 14.4782L5.52511 16.372V20.7909ZM5.52511 14.4782V8.16539V20.7909V14.4782Z" fill="#949494"/>
</svg>
