<svg width="16" height="15" viewBox="0 0 16 15" fill="none" xmlns="http://www.w3.org/2000/svg">
<g clip-path="url(#clip0_657_17122)">
<path d="M8 1.25C4.55 1.25 1.75 4.05 1.75 7.5C1.75 10.95 4.55 13.75 8 13.75C11.45 13.75 14.25 10.95 14.25 7.5C14.25 4.05 11.45 1.25 8 1.25ZM8 12.5C5.24375 12.5 3 10.2563 3 7.5C3 4.74375 5.24375 2.5 8 2.5C10.7563 2.5 13 4.74375 13 7.5C13 10.2563 10.7563 12.5 8 12.5ZM10.425 5.18125L6.75 8.85625L5.575 7.68125C5.33125 7.4375 4.9375 7.4375 4.69375 7.68125C4.45 7.925 4.45 8.31875 4.69375 8.5625L6.3125 10.1813C6.55625 10.425 6.95 10.425 7.19375 10.1813L11.3125 6.0625C11.5562 5.81875 11.5562 5.425 11.3125 5.18125C11.0687 4.9375 10.6687 4.9375 10.425 5.18125Z" fill="#949494"/>
</g>
<defs>
<clipPath id="clip0_657_17122">
<rect width="15" height="15" fill="white" transform="translate(0.5)"/>
</clipPath>
</defs>
</svg>
