<svg width="16" height="16" viewBox="0 0 16 16" fill="none" xmlns="http://www.w3.org/2000/svg">
<g clip-path="url(#clip0_989_3179)">
<path d="M2.29976 11.3333C2.13407 11.3333 1.99976 11.4676 1.99976 11.6333V12.3667C1.99976 12.5324 2.13407 12.6667 2.29976 12.6667H5.69976C5.86544 12.6667 5.99976 12.5324 5.99976 12.3667V11.6333C5.99976 11.4676 5.86544 11.3333 5.69976 11.3333H2.29976ZM2.29976 3.33333C2.13407 3.33333 1.99976 3.46765 1.99976 3.63333V4.36667C1.99976 4.53235 2.13407 4.66667 2.29976 4.66667H8.36642C8.53211 4.66667 8.66642 4.53235 8.66642 4.36667V3.63333C8.66642 3.46765 8.53211 3.33333 8.36642 3.33333H2.29976ZM8.36642 14C8.53211 14 8.66642 13.8657 8.66642 13.7V12.9667C8.66642 12.801 8.80074 12.6667 8.96642 12.6667H13.6998C13.8654 12.6667 13.9998 12.5324 13.9998 12.3667V11.6333C13.9998 11.4676 13.8654 11.3333 13.6998 11.3333H8.96642C8.80074 11.3333 8.66642 11.199 8.66642 11.0333V10.3C8.66642 10.1343 8.53211 10 8.36642 10H7.63309C7.4674 10 7.33309 10.1343 7.33309 10.3V13.7C7.33309 13.8657 7.4674 14 7.63309 14H8.36642ZM4.96642 6C4.80074 6 4.66642 6.13431 4.66642 6.3V7.03333C4.66642 7.19902 4.53211 7.33333 4.36642 7.33333H2.29976C2.13407 7.33333 1.99976 7.46765 1.99976 7.63333V8.36667C1.99976 8.53235 2.13407 8.66667 2.29976 8.66667H4.36642C4.53211 8.66667 4.66642 8.80098 4.66642 8.96667V9.7C4.66642 9.86568 4.80074 10 4.96642 10H5.69976C5.86544 10 5.99976 9.86569 5.99976 9.7V6.3C5.99976 6.13431 5.86544 6 5.69976 6H4.96642ZM13.6998 8.66667C13.8654 8.66667 13.9998 8.53235 13.9998 8.36667V7.63333C13.9998 7.46765 13.8654 7.33333 13.6998 7.33333H7.63309C7.4674 7.33333 7.33309 7.46765 7.33309 7.63333V8.36667C7.33309 8.53235 7.4674 8.66667 7.63309 8.66667H13.6998ZM9.99976 5.7C9.99976 5.86569 10.1341 6 10.2998 6H11.0331C11.1988 6 11.3331 5.86569 11.3331 5.7V4.96667C11.3331 4.80098 11.4674 4.66667 11.6331 4.66667H13.6998C13.8654 4.66667 13.9998 4.53235 13.9998 4.36667V3.63333C13.9998 3.46765 13.8654 3.33333 13.6998 3.33333H11.6331C11.4674 3.33333 11.3331 3.19902 11.3331 3.03333V2.3C11.3331 2.13431 11.1988 2 11.0331 2H10.2998C10.1341 2 9.99976 2.13431 9.99976 2.3V5.7Z" fill="#2A2A2A"/>
</g>
<defs>
<clipPath id="clip0_989_3179">
<rect width="16" height="16" rx="1" fill="white"/>
</clipPath>
</defs>
</svg>
