<svg width="32" height="32" viewBox="0 0 32 32" fill="none" xmlns="http://www.w3.org/2000/svg">
<path d="M23.5668 8.50309L24.4399 8.01559L23.5668 8.50309C25.4005 11.7872 24.9185 15.917 22.3839 18.6579L23.1181 19.3368L22.3839 18.6579C22.1188 18.9445 21.8277 19.2089 21.4993 19.5072C21.4558 19.5468 21.4116 19.5869 21.3668 19.6278C20.765 20.1758 20.3231 20.8221 20.0789 21.5674H11.5942C11.3165 20.7115 10.788 19.9958 10.097 19.3847L9.44145 20.126L10.097 19.3847C8.69504 18.1449 7.78742 16.7823 7.33781 15.325C6.8888 13.8695 6.87728 12.2573 7.36412 10.4846C8.31948 7.00607 10.6546 4.8968 14.2661 4.16773C17.9464 3.42478 21.7243 5.2031 23.5668 8.50309Z" stroke="#3F3F3F" stroke-width="2"/>
<path d="M11.7964 22.3996H19.8583C19.8631 23.4176 19.8641 24.4318 19.8528 25.4445C19.8438 26.258 19.592 26.8225 19.2356 27.1835C18.88 27.5436 18.3249 27.798 17.5226 27.8107C16.3783 27.8287 15.236 27.8311 14.0966 27.8098L14.0966 27.8098C13.3254 27.7954 12.779 27.5439 12.4238 27.185C12.0677 26.8252 11.8181 26.2706 11.8049 25.4915C11.7976 25.0607 11.7994 24.6376 11.8012 24.2024C11.8021 23.9902 11.8031 23.775 11.8029 23.5548V23.5547C11.8028 23.3702 11.801 23.1963 11.7992 23.0285C11.7969 22.8119 11.7947 22.6055 11.7964 22.3996Z" stroke="#3F3F3F" stroke-width="2"/>
<path d="M12.5641 16.8554C14.4555 16.9633 18.1302 16.2726 17.6979 12.6462C17.2655 9.01979 14.8158 8.76093 14.1853 11.0272C13.3747 13.9411 14.8878 16.8554 19.8594 16.8554" stroke="#3F3F3F" stroke-width="2" stroke-linecap="round"/>
</svg>
