<svg width="32" height="32" viewBox="0 0 32 32" fill="none" xmlns="http://www.w3.org/2000/svg">
<path d="M7 25.9752C7 21.5016 10.6266 17.875 15.1002 17.875H17.1252C21.5989 17.875 25.2254 21.5016 25.2254 25.9752V25.9752C25.2254 27.0936 24.3188 28.0002 23.2004 28.0002H9.02505C7.90664 28.0002 7 27.0936 7 25.9752V25.9752Z" stroke="#949494" stroke-width="2" stroke-linejoin="round"/>
<path d="M9.07634 10.3512C9.29705 9.9661 9.85536 10.282 10.5402 9.65662C10.7662 9.45024 11.4868 5.61343 16.2867 5.56375C18.7616 5.53813 22.1207 7.81348 22.25 11.8435C22.3559 15.1449 19.1541 17.5585 16.4344 17.746C9.94002 18.1938 8.11899 12.0214 9.07634 10.3512Z" stroke="#949494" stroke-width="2" stroke-miterlimit="10" stroke-linecap="round"/>
</svg>
