<svg width="144" height="150" viewBox="0 0 144 150" fill="none" xmlns="http://www.w3.org/2000/svg">
<g clip-path="url(#clip0_591_10683)">
<path d="M27.8592 147.542C30.6949 131.281 43.4487 98.0549 71.2414 96.0177C111.332 93.079 124.728 133.926 126.585 152.831C128.893 176.311 23.2222 174.132 27.8592 147.542Z" fill="#231815" stroke="#231815" stroke-width="1.32318" stroke-miterlimit="10" stroke-linecap="round"/>
<path d="M63.8101 121.062C61.2739 125.377 58.5563 130.724 56.1832 137.062C53.7554 143.546 52.2786 149.491 51.3594 154.498" stroke="white" stroke-width="1.32318" stroke-miterlimit="10" stroke-linecap="round"/>
<path d="M99.793 114.531C102.475 118.376 105.562 123.652 107.941 130.335C111.719 140.942 112.024 150.344 111.722 156.325" stroke="white" stroke-width="1.32318" stroke-miterlimit="10" stroke-linecap="round"/>
<path d="M94.0284 96.1816C95.0627 102.166 89.6528 108.295 81.6353 109.681C73.6178 111.067 66.4643 107.109 65.4299 101.125C64.3955 95.1411 69.8054 89.0119 77.823 87.626C85.8405 86.2401 92.994 90.1976 94.0284 96.1816Z" fill="white" stroke="#2A2A2A" stroke-width="0.987432"/>
<path d="M111.723 39.0614C109.475 36.9885 106.5 40.2635 100.722 37.5921C98.8157 36.7105 86.0553 12.9075 54.6676 22.8009C38.4835 27.9022 21.3731 50.0813 29.0001 76.9699C35.2483 98.9978 61.1887 108.118 79.3084 103.565C122.577 92.6916 121.473 48.0528 111.723 39.0614Z" fill="white" stroke="#231815" stroke-width="1.32318" stroke-miterlimit="10" stroke-linecap="round"/>
<path d="M42.3442 80.0324C41.6827 80.8956 38.604 84.9128 33.9028 85.3293C27.1058 85.9315 20.0872 78.726 19.2465 70.9667C18.3029 62.2569 23.3349 54.566 30.4858 53.7885C36.1399 53.1738 40.6695 57.9837 41.2647 58.6403" fill="white"/>
<path d="M42.3442 80.0324C41.6827 80.8956 38.604 84.9128 33.9028 85.3293C27.1058 85.9315 20.0872 78.726 19.2465 70.9667C18.3029 62.2569 23.3349 54.566 30.4858 53.7885C36.1399 53.1738 40.6695 57.9837 41.2647 58.6403" stroke="#231815" stroke-width="1.32318" stroke-miterlimit="10" stroke-linecap="round"/>
<path d="M24.0117 68.1504C25.0952 67.4061 27.4686 65.9934 30.8075 65.7015C34.8249 65.3504 37.8379 66.8319 38.9722 67.4647" stroke="#231815" stroke-width="1.32318" stroke-miterlimit="10" stroke-linecap="round"/>
<path d="M49.3398 41.3107C49.9093 41.8164 55.26 46.8679 62.5077 44.7228C71.1124 42.1759 73.9837 32.7403 74.1273 31.956C76.1617 20.8495 70.6699 8.49567 64.447 11.2386C57.1134 14.4711 62.687 28.0147 73.394 31.8581C80.8831 34.5463 90.432 30.1477 93.5369 21.132" stroke="#231815" stroke-width="1.32318" stroke-miterlimit="10" stroke-linecap="round"/>
<path d="M84.6616 47.8984C85.5442 47.7219 85.957 46.0592 85.5835 44.1847C85.21 42.3102 84.1917 40.9337 83.3091 41.1101C82.4265 41.2866 82.0137 42.9493 82.3872 44.8238C82.7607 46.6983 83.779 48.0749 84.6616 47.8984Z" fill="#231815"/>
<path d="M90.8218 46.2187C91.7044 46.0422 92.1171 44.3795 91.7437 42.505C91.3702 40.6305 90.3519 39.254 89.4693 39.4304C88.5866 39.6069 88.1739 41.2696 88.5473 43.1441C88.9208 45.0186 89.9391 46.3952 90.8218 46.2187Z" fill="#231815"/>
<path d="M130.265 43.4453C130.485 45.859 129.541 51.1144 124.012 52.8259" stroke="#2A2A2A" stroke-width="1.31658" stroke-linecap="round"/>
<path d="M132.55 52.071C132.451 53.9395 131.13 57.8461 126.639 58.5242" stroke="#2A2A2A" stroke-width="1.31658" stroke-linecap="round"/>
<path d="M25.975 115.774C26.7906 114.494 29.6735 111.074 34.6813 107.627" stroke="#2A2A2A" stroke-width="1.31658" stroke-linecap="round"/>
<path d="M22.9647 113.514C23.5807 112.364 25.7578 109.379 29.5383 106.643" stroke="#2A2A2A" stroke-width="1.31658" stroke-linecap="round"/>
</g>
<defs>
<clipPath id="clip0_591_10683">
<rect width="143.824" height="150" fill="white" transform="translate(0.0898438)"/>
</clipPath>
</defs>
</svg>
