<svg width="16" height="16" viewBox="0 0 16 16" fill="none" xmlns="http://www.w3.org/2000/svg">
<g clip-path="url(#clip0_705_12305)">
<path d="M12.2 3.80666C11.94 3.54666 11.52 3.54666 11.26 3.80666L7.99998 7.06L4.73998 3.8C4.47998 3.54 4.05998 3.54 3.79998 3.8C3.53998 4.06 3.53998 4.48 3.79998 4.74L7.05998 8L3.79998 11.26C3.53998 11.52 3.53998 11.94 3.79998 12.2C4.05998 12.46 4.47998 12.46 4.73998 12.2L7.99998 8.94L11.26 12.2C11.52 12.46 11.94 12.46 12.2 12.2C12.46 11.94 12.46 11.52 12.2 11.26L8.93998 8L12.2 4.74C12.4533 4.48666 12.4533 4.06 12.2 3.80666Z" fill="#01A974"/>
</g>
<defs>
<clipPath id="clip0_705_12305">
<rect width="16" height="16" fill="white"/>
</clipPath>
</defs>
</svg>
