<svg width="16" height="16" viewBox="0 0 16 16" fill="none" xmlns="http://www.w3.org/2000/svg">
<g clip-path="url(#clip0_948_2446)">
<path d="M7.9987 1.33594C4.3187 1.33594 1.33203 4.3226 1.33203 8.0026C1.33203 11.6826 4.3187 14.6693 7.9987 14.6693C11.6787 14.6693 14.6654 11.6826 14.6654 8.0026C14.6654 4.3226 11.6787 1.33594 7.9987 1.33594ZM6.19203 10.8626L3.7987 8.46927C3.5387 8.20927 3.5387 7.78927 3.7987 7.52927C4.0587 7.26927 4.4787 7.26927 4.7387 7.52927L6.66536 9.44927L11.252 4.8626C11.512 4.6026 11.932 4.6026 12.192 4.8626C12.452 5.1226 12.452 5.5426 12.192 5.8026L7.13203 10.8626C6.8787 11.1226 6.45203 11.1226 6.19203 10.8626Z" fill="white"/>
</g>
<defs>
<clipPath id="clip0_948_2446">
<rect width="16" height="16" fill="white"/>
</clipPath>
</defs>
</svg>
