<svg width="493" height="493" viewBox="0 0 493 493" fill="none" xmlns="http://www.w3.org/2000/svg">
<rect x="2" y="2" width="489" height="489" rx="91" fill="#05D3A6"/>
<rect x="2" y="2" width="489" height="489" rx="91" stroke="black" stroke-width="4"/>
<g clip-path="url(#clip0_465_3540)">
<path d="M112.573 485.536C121.208 436.104 160.049 335.096 244.689 328.903C366.779 319.969 407.576 444.145 413.233 501.617C420.26 572.995 98.4511 566.37 112.573 485.536Z" fill="#231815" stroke="#231815" stroke-width="4.02006" stroke-miterlimit="10" stroke-linecap="round"/>
<path d="M222.058 405.039C214.334 418.155 206.058 434.409 198.831 453.677C191.438 473.389 186.94 491.463 184.141 506.682" stroke="white" stroke-width="4.02006" stroke-miterlimit="10" stroke-linecap="round"/>
<path d="M331.641 385.188C339.809 396.876 349.209 412.915 356.456 433.23C367.959 465.476 368.888 494.059 367.97 512.241" stroke="white" stroke-width="4.02006" stroke-miterlimit="10" stroke-linecap="round"/>
<path d="M313.412 329.238C316.555 347.418 300.119 366.04 275.76 370.251C251.401 374.461 229.667 362.438 226.525 344.257C223.382 326.076 239.819 307.455 264.177 303.244C288.536 299.034 310.27 311.057 313.412 329.238Z" fill="white" stroke="black" stroke-width="3"/>
<path d="M367.97 155.751C361.124 149.449 352.065 159.405 334.469 151.284C328.663 148.604 289.802 76.2432 194.214 106.319C144.927 121.827 92.819 189.252 116.046 270.993C135.074 337.958 214.073 365.683 269.255 351.841C401.024 318.787 397.662 183.085 367.97 155.751Z" fill="white" stroke="#231815" stroke-width="4.02006" stroke-miterlimit="10" stroke-linecap="round"/>
<path d="M156.688 280.321C154.673 282.945 145.297 295.158 130.981 296.424C110.281 298.254 88.9064 276.349 86.3463 252.761C83.4727 226.283 98.7971 202.903 120.574 200.54C137.793 198.671 151.588 213.293 153.401 215.289" fill="white"/>
<path d="M156.688 280.321C154.673 282.945 145.297 295.158 130.981 296.424C110.281 298.254 88.9064 276.349 86.3463 252.761C83.4727 226.283 98.7971 202.903 120.574 200.54C137.793 198.671 151.588 213.293 153.401 215.289" stroke="#231815" stroke-width="4.02006" stroke-miterlimit="10" stroke-linecap="round"/>
<path d="M100.863 244.184C104.163 241.921 111.391 237.627 121.559 236.74C133.794 235.672 142.97 240.176 146.424 242.1" stroke="#231815" stroke-width="4.02006" stroke-miterlimit="10" stroke-linecap="round"/>
<path d="M247.223 179.203C259.928 173.247 279.192 173.225 276.008 176.027C273.527 178.21 267.174 183.372 261.913 195.283" stroke="#231815" stroke-width="4.02006" stroke-miterlimit="10" stroke-linecap="round"/>
<path d="M314.868 149.969C305.004 152.775 296.892 164.276 301.17 164.411C310.576 164.709 311.89 165.453 321.121 168.878" stroke="#231815" stroke-width="4.02006" stroke-miterlimit="10" stroke-linecap="round"/>
<path d="M179.675 165.537C185.147 166.042 190.831 165.606 196.022 163.721C200.961 161.927 205.168 158.895 208.353 154.71C211.317 150.817 213.239 145.876 212.576 140.933C212.246 138.472 211.317 136.037 209.372 134.396C207.414 132.744 204.801 131.991 202.304 132.788C199.819 133.582 197.827 135.736 197.258 138.291C196.685 140.864 197.597 143.457 199.054 145.571C200.462 147.615 202.261 149.344 204.179 150.904C206.311 152.638 208.664 154.072 211.326 154.827C213.952 155.572 216.751 155.6 219.393 154.922C222.039 154.244 224.511 152.89 226.712 151.297C228.924 149.696 230.996 147.875 232.924 145.942C234.765 144.096 236.497 142.06 237.772 139.775C239.066 137.456 239.897 134.826 239.823 132.15C239.743 129.268 238.57 126.372 236.05 124.798C233.601 123.269 230.564 123.605 228.455 125.538C226.549 127.285 225.663 129.98 225.708 132.518C225.755 135.117 226.674 137.703 228.238 139.774C229.815 141.862 231.891 143.371 234.307 144.351C238.662 146.118 243.787 145.607 248.106 143.996C252.91 142.203 257.015 139.015 260.255 135.065C261.974 132.969 263.491 130.715 264.791 128.336C266.161 125.826 267.394 123.103 267.98 120.29C268.514 117.726 268.298 114.524 265.695 113.136C263.302 111.86 260.334 112.725 258.454 114.511C256.718 116.159 255.779 118.631 255.831 121.01C255.883 123.338 256.888 125.434 258.479 127.104C261.108 129.863 265.02 130.821 268.72 130.737C272.714 130.647 276.624 129.535 280.269 127.957C283.799 126.43 286.975 124.296 289.57 121.438C292.958 117.706 295.361 113.056 296.367 108.113C296.864 105.669 297.056 103.164 296.882 100.675C296.819 99.7725 296.157 99 295.207 99C294.349 99 293.469 99.7678 293.532 100.675C293.687 102.902 293.56 105.071 293.172 107.046C292.953 108.161 292.661 109.263 292.301 110.341C291.924 111.469 291.643 112.161 291.148 113.178C290.194 115.138 288.976 117.017 287.678 118.529C286.954 119.372 286.176 120.169 285.349 120.912C284.965 121.257 284.567 121.583 284.167 121.91C284.091 121.973 283.917 122.08 284.264 121.837C284.207 121.877 284.153 121.921 284.097 121.962C283.937 122.078 283.779 122.195 283.617 122.307C282.39 123.164 281.077 123.897 279.728 124.542C279.368 124.713 279.004 124.876 278.64 125.038C278.556 125.075 278.269 125.195 278.606 125.054C278.522 125.089 278.439 125.124 278.355 125.158C278.144 125.245 277.932 125.329 277.719 125.411C276.898 125.729 276.065 126.015 275.221 126.268C274.415 126.51 273.599 126.721 272.775 126.896C272.365 126.983 271.954 127.061 271.541 127.13C271.335 127.164 271.129 127.19 270.924 127.224C270.648 127.27 271.335 127.179 270.89 127.228C270.753 127.242 270.617 127.26 270.48 127.274C269.674 127.358 268.863 127.4 268.053 127.391C267.659 127.386 267.265 127.369 266.872 127.338C266.678 127.322 266.485 127.301 266.292 127.281C266.188 127.27 265.887 127.217 266.292 127.283C266.166 127.262 266.04 127.244 265.915 127.222C265.179 127.095 264.453 126.909 263.751 126.651C263.657 126.616 263.563 126.571 263.466 126.542C263.225 126.47 263.834 126.715 263.474 126.545C263.328 126.476 263.181 126.41 263.037 126.338C262.678 126.156 262.33 125.953 261.996 125.728C261.863 125.638 261.733 125.543 261.603 125.448C261.969 125.718 261.449 125.311 261.378 125.248C261.086 124.988 260.811 124.708 260.555 124.412C260.501 124.349 260.451 124.28 260.393 124.22C260.216 124.037 260.621 124.543 260.382 124.208C260.282 124.067 260.181 123.928 260.086 123.784C259.956 123.586 259.831 123.384 259.72 123.176C259.67 123.083 259.625 122.989 259.579 122.895C259.369 122.468 259.652 123.168 259.509 122.715C259.446 122.516 259.379 122.319 259.328 122.116C259.297 121.989 259.269 121.862 259.245 121.734C259.229 121.652 259.188 121.311 259.223 121.636C259.17 121.139 259.173 120.643 259.214 120.145C259.238 119.847 259.131 120.533 259.226 120.044C259.246 119.941 259.263 119.838 259.286 119.735C259.329 119.529 259.382 119.326 259.443 119.125C259.481 118.999 259.523 118.875 259.568 118.752C259.594 118.681 259.73 118.369 259.606 118.642C259.714 118.404 259.834 118.172 259.968 117.947C260.021 117.857 260.076 117.768 260.134 117.681C260.119 117.704 260.413 117.287 260.276 117.468C260.139 117.649 260.459 117.254 260.441 117.274C260.511 117.196 260.582 117.119 260.655 117.044C260.801 116.894 260.955 116.752 261.116 116.617C260.899 116.8 261.165 116.583 261.225 116.543C261.361 116.452 261.5 116.368 261.643 116.289C261.763 116.224 261.885 116.16 262.01 116.106C261.936 116.138 261.763 116.186 262.068 116.092C262.303 116.02 262.535 115.952 262.777 115.901C263.064 115.84 262.396 115.902 262.89 115.885C262.996 115.881 263.101 115.873 263.207 115.873C263.313 115.873 263.417 115.88 263.522 115.885C263.188 115.871 263.623 115.907 263.689 115.924C263.788 115.949 263.886 115.979 263.983 116.012C263.695 115.914 263.996 116.021 264.071 116.066C264.134 116.105 264.404 116.296 264.18 116.115C264.264 116.183 264.337 116.263 264.415 116.337C264.636 116.545 264.509 116.443 264.458 116.371C264.535 116.479 264.595 116.596 264.662 116.71C264.795 116.939 264.593 116.495 264.685 116.744C264.74 116.895 264.785 117.048 264.821 117.205C264.839 117.278 264.902 117.625 264.859 117.321C264.874 117.43 264.881 117.543 264.887 117.652C264.901 117.904 264.899 118.158 264.885 118.41C264.877 118.552 264.865 118.694 264.851 118.835C264.858 118.761 264.9 118.553 264.842 118.898C264.796 119.177 264.741 119.453 264.676 119.728C264.091 122.19 263.104 124.438 261.898 126.645C259.637 130.782 256.9 134.379 253.198 137.359C251.786 138.497 249.62 139.776 247.948 140.478C248.114 140.409 247.795 140.54 247.762 140.553C247.632 140.605 247.503 140.656 247.372 140.706C247.163 140.786 246.953 140.863 246.741 140.937C246.211 141.122 245.674 141.288 245.132 141.434C244.644 141.566 244.151 141.681 243.655 141.779C243.435 141.822 243.215 141.862 242.993 141.898C242.855 141.921 242.717 141.942 242.578 141.961C242.458 141.979 242.468 141.977 242.608 141.957C242.525 141.967 242.442 141.977 242.359 141.985C241.34 142.096 240.312 142.128 239.289 142.064C239.043 142.048 238.797 142.027 238.551 142.001C238.476 141.992 238.123 141.943 238.427 141.988C238.319 141.972 238.211 141.955 238.103 141.937C237.593 141.851 237.087 141.738 236.589 141.597C236.117 141.464 235.652 141.306 235.198 141.121C234.912 141.004 235.54 141.292 235.071 141.063C234.972 141.014 234.872 140.97 234.774 140.922C234.526 140.8 234.283 140.671 234.044 140.533C233.055 139.965 232.539 139.577 231.742 138.756C230.988 137.98 230.519 137.314 229.996 136.272C229.942 136.166 229.893 136.058 229.84 135.951C229.591 135.444 229.886 136.084 229.762 135.78C229.662 135.533 229.573 135.281 229.492 135.027C229.412 134.774 229.341 134.518 229.279 134.259C229.245 134.116 229.213 133.972 229.185 133.827C229.175 133.774 229.093 133.291 229.133 133.574C229.063 133.081 229.047 132.574 229.061 132.077C229.08 131.407 229.081 131.344 229.233 130.717C229.368 130.16 229.468 129.882 229.631 129.549C229.741 129.324 229.863 129.105 229.996 128.893C230.069 128.776 230.147 128.662 230.225 128.548C230.411 128.278 230.125 128.626 230.371 128.371C230.521 128.215 230.664 128.053 230.824 127.907C230.801 127.928 231.203 127.599 231.025 127.731C230.878 127.84 231.148 127.652 231.181 127.631C231.379 127.504 231.589 127.382 231.807 127.292C231.546 127.4 231.806 127.302 231.852 127.292C232.008 127.256 232.161 127.206 232.318 127.173C232.8 127.069 232.15 127.17 232.457 127.162C232.603 127.158 232.748 127.161 232.894 127.162C232.936 127.162 233.218 127.202 232.969 127.161C233.083 127.18 233.198 127.206 233.31 127.235C233.424 127.264 233.534 127.301 233.646 127.333C234.152 127.476 233.542 127.267 233.817 127.395C234.108 127.529 234.396 127.696 234.654 127.889C234.592 127.842 234.485 127.733 234.732 127.958C234.82 128.037 234.908 128.116 234.992 128.199C235.097 128.303 235.197 128.411 235.293 128.524C235.499 128.766 235.101 128.209 235.422 128.695C235.732 129.163 235.948 129.578 236.084 129.982C236.473 131.133 236.537 132.019 236.448 133.261C236.441 133.363 236.378 133.929 236.408 133.72C236.365 134.018 236.306 134.315 236.239 134.608C236.112 135.166 235.946 135.715 235.748 136.251C235.579 136.707 235.489 136.909 235.224 137.435C234.947 137.985 234.64 138.519 234.31 139.038C233.114 140.917 231.621 142.552 229.949 144.169C226.617 147.391 222.843 150.645 218.313 151.739C217.16 152.017 216.272 152.108 215.016 152.059C213.947 152.018 213.173 151.883 212.04 151.546C210.043 150.95 208.07 149.783 206.425 148.435C205.59 147.75 204.778 147.035 204.012 146.273C203.277 145.542 202.538 144.717 202.049 144.026C201.744 143.596 201.461 143.15 201.212 142.686C201.077 142.435 200.945 142.179 200.837 141.916C200.867 141.99 200.918 142.153 200.817 141.846C200.764 141.687 200.706 141.531 200.657 141.371C200.594 141.16 200.539 140.946 200.494 140.73C200.5 140.758 200.413 140.231 200.444 140.468C200.474 140.704 200.424 140.173 200.426 140.201C200.414 139.982 200.426 139.765 200.431 139.546C200.441 139.042 200.389 139.714 200.441 139.423C200.47 139.261 200.505 139.102 200.547 138.944C200.575 138.838 200.607 138.733 200.641 138.63C200.662 138.565 200.783 138.234 200.676 138.494C200.759 138.292 200.864 138.097 200.972 137.908C201.275 137.382 201.335 137.296 201.827 136.835C201.907 136.761 201.989 136.689 202.072 136.618C201.882 136.778 202.086 136.606 202.123 136.581C202.352 136.427 202.584 136.296 202.825 136.162C202.864 136.14 203.116 136.036 202.874 136.132C202.979 136.09 203.087 136.053 203.194 136.019C203.331 135.975 203.469 135.937 203.608 135.904C203.669 135.889 204.113 135.811 203.96 135.83C203.726 135.859 204.25 135.816 204.224 135.817C204.33 135.812 204.438 135.812 204.544 135.814C204.625 135.816 205.218 135.889 204.884 135.829C205.141 135.875 205.393 135.935 205.641 136.014C205.74 136.046 205.837 136.082 205.935 136.117C205.627 136.006 206.074 136.186 206.104 136.201C206.313 136.307 206.516 136.426 206.712 136.555C206.821 136.627 206.93 136.7 207.034 136.78C206.971 136.732 206.836 136.6 207.064 136.815C207.218 136.961 207.378 137.1 207.525 137.253C207.618 137.348 207.707 137.447 207.794 137.548C207.847 137.608 207.899 137.67 207.949 137.732C207.868 137.626 207.862 137.62 207.931 137.713C208.215 138.109 208.46 138.529 208.664 138.972C208.791 139.245 208.551 138.613 208.715 139.098C208.749 139.202 208.787 139.303 208.821 139.407C208.912 139.684 208.99 139.965 209.059 140.248C209.121 140.5 209.175 140.753 209.222 141.008C209.247 141.149 209.272 141.29 209.292 141.432C209.281 141.355 209.265 141.152 209.297 141.495C209.346 142.032 209.377 142.568 209.369 143.107C209.365 143.362 209.354 143.616 209.336 143.87C209.328 143.983 209.319 144.096 209.308 144.208C209.312 144.169 209.252 144.722 209.281 144.492C209.309 144.262 209.231 144.813 209.237 144.774C209.219 144.887 209.199 144.998 209.178 145.11C209.126 145.39 209.066 145.669 208.998 145.946C208.745 146.981 208.367 148.051 208.02 148.806C207.112 150.78 205.915 152.557 204.599 154.046C203.904 154.831 203.161 155.574 202.374 156.267C202.159 156.456 201.941 156.641 201.72 156.823C201.646 156.883 201.213 157.225 201.393 157.087C200.953 157.425 200.499 157.745 200.034 158.048C196.12 160.601 191.401 161.907 186.854 162.263C184.464 162.45 182.062 162.407 179.675 162.187C178.773 162.103 178 163.016 178 163.862C178 164.837 178.77 165.453 179.675 165.537Z" fill="#231815"/>
<circle cx="390.5" cy="93.5" r="24.5" fill="white" stroke="black" stroke-width="4"/>
<circle cx="420.5" cy="137.5" r="10.5" fill="white" stroke="black" stroke-width="4"/>
<circle cx="89" cy="405" r="13" fill="white" stroke="black" stroke-width="4"/>
<path d="M110.011 383.373C112.105 379.266 119.828 368.082 133.969 356.202" stroke="black" stroke-width="4" stroke-linecap="round"/>
<path d="M96.2654 377.799C97.7935 374.142 103.509 364.483 114.145 355.106" stroke="black" stroke-width="4" stroke-linecap="round"/>
</g>
<defs>
<clipPath id="clip0_465_3540">
<rect width="438" height="456" fill="white" transform="translate(28 37)"/>
</clipPath>
</defs>
</svg>
