<svg width="219" height="329" viewBox="0 0 219 329" fill="none" xmlns="http://www.w3.org/2000/svg">
<path d="M45.26 311.22C45.26 318.9 37.64 323.34 29.54 323.34C21.44 323.34 13.82 318.9 13.82 311.22C13.82 303.54 21.44 299.1 29.54 299.1C37.64 299.1 45.26 303.54 45.26 311.22ZM21.26 289.62V281.16H29.54V289.62H53.78C55.4 289.62 55.64 290.64 55.64 292.92C55.64 295.26 55.4 296.16 53.78 296.16H4.1V289.62H21.26ZM43.28 286.74C40.76 286.74 39.26 286.38 39.26 285V275.52C39.26 274.44 38.78 274.2 37.94 274.2H11.84V267.36H39.8C41.36 267.36 43.52 268.74 44.9 270.12C46.16 271.38 47.42 273.24 47.42 274.44V285C47.42 286.38 45.98 286.74 43.28 286.74ZM37.1 311.22C37.1 308.04 33.98 305.76 29.6 305.76C25.1 305.76 21.98 308.04 21.98 311.22C21.98 314.4 25.1 316.68 29.6 316.68C34.04 316.68 37.1 314.4 37.1 311.22ZM99.4813 292.32H74.5213C73.0213 292.32 70.8013 290.7 69.5413 289.38C68.2813 288.12 67.0213 286.44 67.0213 285.36V269.16H103.681V287.82C103.681 290.64 102.361 292.32 99.4813 292.32ZM59.8813 297.84H109.561C111.181 297.84 111.421 299.1 111.421 301.38C111.421 303.72 111.181 304.86 109.561 304.86H89.5213V318.3C89.5213 319.68 88.0213 320.04 85.3213 320.04C82.8013 320.04 81.2413 319.74 81.2413 318.36V304.86H59.8813V297.84ZM75.3013 276.06V284.1C75.3013 285.12 75.7213 285.42 76.7413 285.42H95.4013V276.06H75.3013ZM136.303 314.7H161.443C162.763 314.7 163.003 316.08 163.003 318.12C163.003 320.34 162.763 321.48 161.443 321.48H134.263C132.703 321.48 130.543 320.04 129.283 318.72C127.963 317.46 126.763 315.6 126.763 314.46V301.68H134.923V313.38C134.923 314.28 135.403 314.7 136.303 314.7ZM161.803 266.82V303.3C161.803 304.86 159.943 305.1 157.723 305.1C155.143 305.1 153.643 304.68 153.643 303.3V266.82H161.803ZM130.423 275.04C126.163 275.04 123.523 278.34 123.523 282.18C123.523 286.02 126.163 289.26 130.423 289.26C134.683 289.26 137.263 286.02 137.263 282.18C137.263 278.34 134.683 275.04 130.423 275.04ZM130.423 296.1C122.203 296.1 115.603 289.86 115.603 282.18C115.603 274.44 122.203 268.2 130.423 268.2C138.643 268.2 145.183 274.44 145.183 282.18C145.183 289.86 138.643 296.1 130.423 296.1Z" fill="black"/>
<path d="M198.795 56.159L199.896 57.1774L198.795 56.159C198.15 56.8569 197.441 57.5002 196.678 58.1935C196.576 58.2861 196.473 58.3795 196.369 58.4741C194.908 59.8049 193.897 61.3833 193.426 63.2207H172.361C171.829 61.1318 170.619 59.4006 168.939 57.9147L167.945 59.0384L168.939 57.9147C165.57 54.9354 163.354 51.6284 162.252 48.056C161.15 44.4864 161.133 40.5583 162.306 36.2866C164.624 27.8458 170.335 22.7011 179.062 20.9394C188.019 19.1311 197.198 23.459 201.673 31.4738C206.129 39.4547 204.961 49.4912 198.795 56.159Z" fill="#FFBA56" stroke="black" stroke-width="3"/>
<path d="M193.116 63.5H172.644C172.616 64.2777 172.624 65.0381 172.633 65.8365C172.637 66.2242 172.641 66.6207 172.641 67.0326L172.641 67.0328C172.642 67.5382 172.639 68.036 172.637 68.5296C172.633 69.551 172.629 70.5541 172.646 71.5685C172.68 73.5648 173.325 75.0781 174.332 76.0962C175.339 77.1129 176.835 77.7655 178.816 77.8026L193.116 63.5ZM193.116 63.5C193.131 66.1572 193.137 68.8072 193.108 71.4541C193.085 73.526 192.438 75.0664 191.425 76.0919C190.414 77.1161 188.894 77.7722 186.845 77.8045L193.116 63.5Z" fill="white" stroke="black" stroke-width="3"/>
<path d="M175.254 51.3775C179.67 51.6295 188.251 50.0167 187.241 41.5491C186.232 33.0816 180.512 32.4771 179.039 37.7687C177.147 44.5727 180.68 51.3775 192.288 51.3775" stroke="black" stroke-width="3" stroke-linecap="round"/>
<path d="M182.07 2L182.07 10.5173" stroke="black" stroke-width="2.7" stroke-linecap="round"/>
<path d="M197.801 14.8359L203.823 8.81332" stroke="black" stroke-width="2.7" stroke-linecap="round"/>
<path d="M160.324 8.8125L166.347 14.8351" stroke="black" stroke-width="2.7" stroke-linecap="round"/>
<path d="M209.324 29.7578L217.551 27.5534" stroke="black" stroke-width="2.7" stroke-linecap="round"/>
<path d="M148 27.5547L156.227 29.7591" stroke="black" stroke-width="2.7" stroke-linecap="round"/>
<path fill-rule="evenodd" clip-rule="evenodd" d="M71.9432 170.029C34.8587 172.745 17.8409 217.047 14.0572 238.728C13.9223 239.501 13.8574 240.259 13.8594 241.001H145.182C141.064 214.314 122.262 166.343 71.9432 170.029Z" fill="black"/>
<path d="M14.0572 238.728L15.5597 238.99L14.0572 238.728ZM71.9432 170.029L72.0546 171.55L71.9432 170.029ZM13.8594 241.001L12.3343 241.005L12.3385 242.526H13.8594V241.001ZM145.182 241.001V242.526H146.96L146.689 240.768L145.182 241.001ZM15.5597 238.99C17.4234 228.311 22.5604 212.024 31.7837 198.109C41.0054 184.197 54.1635 172.86 72.0546 171.55L71.8318 168.508C52.6384 169.914 38.7454 182.086 29.2412 196.424C19.7385 210.76 14.4748 227.464 12.5548 238.465L15.5597 238.99ZM15.3846 240.997C15.3828 240.347 15.4396 239.678 15.5597 238.99L12.5548 238.465C12.405 239.324 12.332 240.171 12.3343 241.005L15.3846 240.997ZM13.8594 242.526H145.182V239.476H13.8594V242.526ZM72.0546 171.55C96.6172 169.751 113.432 180.521 124.681 195.058C135.98 209.659 141.641 228.053 143.675 241.234L146.689 240.768C144.605 227.262 138.806 208.327 127.094 193.192C115.333 177.993 97.5876 166.621 71.8318 168.508L72.0546 171.55Z" fill="black"/>
<path d="M101.076 171.887C103.825 172.611 110.385 175.039 118.387 173.924C131.266 172.129 140.504 162.922 142.231 161.512C142.839 161.016 151.644 174.777 155.928 182.389C160.506 190.523 128.72 218.427 104.718 215.888C93.2482 214.675 82.2526 205.331 82.1263 192.83C82.0109 181.408 90.386 169.073 101.076 171.887Z" fill="black" stroke="black" stroke-width="2.75904" stroke-miterlimit="10"/>
<path d="M139.713 165.042C142.115 160.595 141.758 160.862 143.948 154.652C147.971 143.248 142.998 135.305 146.711 132.754C149.059 131.141 152.191 131.888 154.642 135.073C157.842 139.23 155.716 146.783 155.716 146.783C155.716 146.783 157.072 146.98 159.358 147.126C163.376 147.383 166.453 150.942 168.387 154.146C171.967 160.076 174.082 168.318 170.311 174.621C168.903 176.976 166.934 179.152 164.851 180.931C163.688 181.924 159.186 185.482 153.43 184.851L139.713 165.042Z" fill="white" stroke="black" stroke-width="3.18554" stroke-miterlimit="10"/>
<path d="M166.738 170.967C158.063 176.994 144.371 151.517 156.609 146.985" stroke="black" stroke-width="3.18554" stroke-linecap="round"/>
<path d="M125.958 99.0871C122.959 96.3232 118.989 100.69 111.28 97.128C108.736 95.9525 91.7091 64.2152 49.8276 77.4065C28.2328 84.2081 5.40196 113.78 15.5788 149.632C23.9159 179.002 58.5289 191.162 82.7065 185.091C140.44 170.594 138.967 111.076 125.958 99.0871Z" fill="white" stroke="black" stroke-width="3" stroke-miterlimit="10" stroke-linecap="round"/>
<path d="M33.3857 153.72C32.503 154.871 28.395 160.228 22.1221 160.783C13.0527 161.586 3.68749 151.978 2.56581 141.633C1.30674 130.02 8.02103 119.765 17.5626 118.728C25.107 117.909 31.1511 124.322 31.9453 125.197" fill="white"/>
<path d="M33.3857 153.72C32.503 154.871 28.395 160.228 22.1221 160.783C13.0527 161.586 3.68749 151.978 2.56581 141.633C1.30674 130.02 8.02103 119.765 17.5626 118.728C25.107 117.909 31.1511 124.322 31.9453 125.197" stroke="black" stroke-width="3.05031" stroke-miterlimit="10" stroke-linecap="round"/>
<path d="M8.92578 137.875C10.3715 136.883 13.5383 134.999 17.9936 134.61C23.3542 134.142 27.3745 136.117 28.888 136.961" stroke="black" stroke-width="3.05031" stroke-miterlimit="10" stroke-linecap="round"/>
<path d="M84.4293 115.462C86.9273 115.462 88.9523 113.435 88.9523 110.934C88.9523 108.433 86.9273 106.406 84.4293 106.406C81.9313 106.406 79.9062 108.433 79.9062 110.934C79.9062 113.435 81.9313 115.462 84.4293 115.462Z" fill="black"/>
<path d="M85.3081 109.881C84.9934 109.817 84.7618 109.6 84.7697 109.376L84.8111 108.2C84.8203 107.936 85.1531 107.771 85.5233 107.846L85.9009 107.923C86.271 107.998 86.5133 108.28 86.4194 108.526L86.0004 109.625C85.9206 109.835 85.6229 109.945 85.3081 109.881Z" fill="white"/>
<path d="M84.9783 110.569L85.0779 110.589C85.35 110.644 85.5335 110.846 85.4782 111.029L85.3206 111.552C85.2701 111.72 85.0374 111.811 84.789 111.761C84.5405 111.71 84.3616 111.536 84.3802 111.362L84.4383 110.819C84.4586 110.628 84.7062 110.513 84.9783 110.569Z" fill="white"/>
<path d="M96.8863 109.165C99.3843 109.165 101.409 107.138 101.409 104.637C101.409 102.136 99.3843 100.109 96.8863 100.109C94.3883 100.109 92.3633 102.136 92.3633 104.637C92.3633 107.138 94.3883 109.165 96.8863 109.165Z" fill="black"/>
<path d="M97.7691 103.592C97.4544 103.528 97.2228 103.311 97.2307 103.087L97.272 101.911C97.2813 101.647 97.614 101.482 97.9842 101.557L98.3618 101.634C98.7319 101.709 98.9743 101.991 98.8804 102.237L98.4614 103.336C98.3816 103.546 98.0838 103.656 97.7691 103.592Z" fill="white"/>
<path d="M97.4353 104.28L97.5349 104.3C97.8071 104.355 97.9906 104.557 97.9352 104.74L97.7776 105.263C97.7271 105.431 97.4945 105.522 97.246 105.471C96.9976 105.421 96.8187 105.246 96.8373 105.072L96.8953 104.529C96.9157 104.339 97.1632 104.224 97.4353 104.28Z" fill="white"/>
<mask id="path-25-inside-1_1120_12297" fill="white">
<path d="M33.0277 95.2774C33.323 97.0013 34.6771 98.3646 35.8906 99.5276C36.8988 100.494 37.9956 101.376 39.1512 102.16C41.2752 103.599 43.6679 104.676 46.1469 105.334C51.061 106.639 56.3322 106.325 61.1579 104.797C66.1067 103.229 70.6798 100.441 74.3457 96.7625C78.1918 92.903 81.095 87.9677 82.1885 82.5982C82.9171 79.0197 83.0427 75.0045 81.7928 71.5235C80.6895 68.4507 78.6686 65.7144 75.8935 63.9597C73.3903 62.3769 70.3169 61.7366 67.3989 62.2322C65.0266 62.6351 62.805 63.9672 61.2463 65.7905C57.8642 69.7468 57.237 75.523 59.6587 80.1283C61.1846 83.0299 63.8461 85.3192 66.7484 86.7718C69.831 88.3146 73.2603 89.0305 76.6912 89.1575C83.4951 89.4092 90.4341 87.2928 96.1297 83.6046C99.0972 81.6831 101.815 79.3048 104.303 76.8005C106.858 74.23 109.174 71.4183 111.229 68.433C112.212 67.0053 113.129 65.5332 113.981 64.0242C114.33 63.4073 114.148 62.516 113.496 62.1711C112.855 61.8321 112.017 61.9983 111.645 62.657C110.803 64.1467 109.899 65.6002 108.93 67.0108C108.44 67.7252 107.934 68.4286 107.412 69.1204C107 69.6672 106.527 70.2664 105.971 70.9379C103.804 73.5562 101.409 75.9862 98.8216 78.189C98.1621 78.7504 97.4908 79.2986 96.8057 79.8285C96.9656 79.7047 96.6348 79.9579 96.5774 80.0009C96.4144 80.1232 96.2502 80.244 96.0849 80.3631C95.7524 80.6027 95.4152 80.8358 95.0738 81.0625C93.7578 81.936 92.3786 82.7137 90.9533 83.3935C90.5933 83.5652 90.2304 83.7305 89.8647 83.8896C89.8092 83.9137 89.5556 84.0222 89.7819 83.9266C89.7043 83.9594 89.6266 83.9915 89.5488 84.0235C89.3345 84.1116 89.1194 84.1975 88.9035 84.2812C88.1366 84.5787 87.3591 84.8488 86.5728 85.0903C85.0416 85.5606 83.4768 85.923 81.8934 86.1652C81.8103 86.178 81.7272 86.1903 81.644 86.2024C81.6579 86.2004 81.2488 86.2554 81.4493 86.2299C81.6498 86.2043 81.2404 86.2549 81.2544 86.2533C81.1711 86.2633 81.0877 86.2729 81.0043 86.2823C80.588 86.3288 80.1708 86.3668 79.753 86.3961C78.9624 86.4516 78.1694 86.4753 77.3769 86.4655C76.5679 86.4556 75.7595 86.4106 74.9547 86.3284C74.7695 86.3095 74.5847 86.2879 74.3999 86.2658C74.1308 86.2338 74.3358 86.2583 74.3909 86.2659C74.2681 86.2489 74.1456 86.231 74.0232 86.2122C73.6155 86.1496 73.2092 86.0771 72.8052 85.9944C72.0395 85.8376 71.2802 85.6461 70.5353 85.4089C70.1824 85.2965 69.8327 85.1742 69.4867 85.0418C69.4098 85.0124 69.333 84.9825 69.2565 84.952C69.2717 84.9581 68.8966 84.8058 69.0751 84.8797C69.2534 84.9536 68.8814 84.7949 68.8962 84.8014C68.7833 84.7513 68.6708 84.7002 68.5589 84.6479C67.8513 84.3172 67.1647 83.9416 66.5064 83.5211C66.1957 83.3226 65.8915 83.1138 65.5948 82.895C65.5739 82.8796 65.2528 82.6325 65.4781 82.8095C65.4138 82.759 65.35 82.708 65.2865 82.6565C65.1279 82.5279 64.9719 82.3961 64.8185 82.2613C64.2208 81.736 63.6643 81.1637 63.1605 80.5474C63.0959 80.4683 63.0315 80.3889 62.969 80.308C63.003 80.3521 63.1109 80.5003 62.9578 80.2889C62.8476 80.1367 62.7377 79.9845 62.6327 79.8285C62.4542 79.563 62.2865 79.2901 62.1306 79.0107C61.993 78.7642 61.8646 78.5126 61.7457 78.2565C61.7196 78.2002 61.695 78.1432 61.6687 78.0869C61.537 77.8054 61.7465 78.3003 61.6778 78.1121C61.6198 77.9537 61.553 77.7985 61.496 77.6396C61.3024 77.0999 61.15 76.5453 61.0404 75.9824C61.0148 75.8509 60.9916 75.7188 60.9707 75.5864C60.9602 75.52 60.9635 75.4273 60.938 75.3662C61.0288 75.5837 60.9654 75.5923 60.9528 75.4618C60.9245 75.1683 60.8971 74.8757 60.8861 74.5808C60.8655 74.0272 60.8848 73.4721 60.9432 72.9212C60.9508 72.8493 60.9618 72.7775 60.9682 72.7054C60.9859 72.5076 60.9118 73.0596 60.9613 72.7648C60.9828 72.6367 61.0024 72.5085 61.026 72.3808C61.0785 72.0983 61.1412 71.8178 61.2142 71.5399C61.2832 71.2774 61.3613 71.0172 61.4484 70.7601C61.485 70.6523 61.5231 70.545 61.5629 70.4383C61.5876 70.3717 61.6131 70.3054 61.6391 70.2393C61.6546 70.1996 61.6704 70.1601 61.6864 70.1206C61.7419 69.9862 61.7293 70.0156 61.6487 70.2089C61.793 70.0643 61.8785 69.7062 61.9747 69.5192C62.1033 69.2693 62.2413 69.0241 62.3884 68.7846C62.5202 68.5701 62.6594 68.3601 62.8057 68.1553C62.8428 68.1034 63.0755 67.7714 62.9499 67.9572C62.8207 68.1482 62.9775 67.9252 62.9996 67.898C63.0523 67.8333 63.1056 67.7693 63.1598 67.7059C63.5018 67.3059 63.8742 66.9319 64.2743 66.5901C64.3698 66.5085 64.5163 66.4243 64.5952 66.3277C64.5787 66.3478 64.3343 66.5205 64.5192 66.3887C64.5642 66.3566 64.6082 66.3232 64.6532 66.291C64.8784 66.1299 65.1107 65.9787 65.3492 65.8382C65.577 65.7041 65.8104 65.5799 66.0489 65.4659C66.171 65.4075 66.5071 65.3281 66.147 65.4139C66.291 65.3796 66.4403 65.2964 66.5802 65.2464C67.1074 65.0577 67.652 64.9185 68.2049 64.83C68.2516 64.8225 68.3408 64.8222 68.379 64.8038C68.1915 64.894 68.1408 64.8318 68.283 64.819C68.4319 64.8055 68.5799 64.7894 68.7291 64.7799C69.034 64.7605 69.3397 64.7558 69.645 64.7651C69.9296 64.7737 70.2119 64.7992 70.4951 64.8267C70.7434 64.8507 70.4572 64.8153 70.424 64.8151C70.5028 64.8156 70.5884 64.8395 70.6663 64.8524C70.8469 64.8821 71.0267 64.9162 71.2055 64.9547C71.8719 65.098 72.527 65.2977 73.1577 65.5569C72.8941 65.4485 73.1307 65.5477 73.196 65.5774C73.2812 65.6163 73.3661 65.6562 73.4503 65.6972C73.5849 65.7629 73.7182 65.8312 73.85 65.9023C74.1791 66.0797 74.4994 66.2737 74.8095 66.4827C74.9646 66.5872 75.1161 66.6966 75.267 66.8073C75.4714 66.9572 75.2992 66.8318 75.2603 66.8007C75.3334 66.8591 75.4064 66.9177 75.4785 66.9775C75.7675 67.217 76.0453 67.4699 76.3115 67.7345C76.5652 67.9868 76.8084 68.2497 77.0404 68.5221C77.1384 68.6372 77.233 68.7549 77.3284 68.8721C77.5582 69.1547 77.2304 68.7298 77.3591 68.9125C77.4354 69.0209 77.5164 69.1259 77.5927 69.2343C78.0078 69.8247 78.3764 70.4479 78.6954 71.0954C78.7711 71.2491 78.8439 71.4043 78.914 71.5606C78.9429 71.625 79.044 71.8637 78.9361 71.6042C78.9654 71.6745 78.994 71.7452 79.022 71.816C79.1623 72.1701 79.2882 72.5298 79.3993 72.8941C79.6098 73.5846 79.7686 74.2923 79.8665 75.0077C79.8253 74.7069 79.8587 74.967 79.8669 75.0428C79.8784 75.1491 79.8885 75.2555 79.8981 75.3619C79.9159 75.5613 79.9312 75.7608 79.9442 75.9606C79.9766 76.4598 79.9941 76.9601 79.9966 77.4604C80.0061 79.4596 79.8143 81.0512 79.3337 82.9549C79.1521 83.6741 78.9369 84.3848 78.6912 85.0847C78.5968 85.3535 78.4979 85.6206 78.3946 85.8861C78.3373 86.0334 78.2786 86.1801 78.2186 86.3263C78.1947 86.3845 78.1722 86.4443 78.146 86.5013C78.301 86.1641 78.1593 86.4666 78.1334 86.5261C77.6543 87.6237 77.0995 88.6878 76.478 89.7112C76.1593 90.236 75.8229 90.75 75.4704 91.2526C75.2985 91.4976 75.1229 91.7398 74.9435 91.9792C74.8654 92.0835 74.6946 92.3214 74.8686 92.0809C74.7582 92.2335 74.635 92.3791 74.5168 92.5256C73.7642 93.4582 72.9544 94.3443 72.0956 95.1797C71.6659 95.5978 71.2238 96.0032 70.7704 96.3955C70.5556 96.5814 70.3383 96.7643 70.1185 96.9441C69.9964 97.0441 69.8735 97.1431 69.7499 97.2411C69.7005 97.2804 69.6507 97.3191 69.6012 97.3584C69.3678 97.5439 69.7946 97.2128 69.5757 97.3783C67.6409 98.8408 65.5617 100.097 63.3474 101.088C63.2189 101.146 63.0898 101.202 62.9608 101.258C62.8815 101.293 62.6818 101.4 62.982 101.25C62.9271 101.278 62.866 101.299 62.8089 101.322C62.5204 101.441 62.2299 101.556 61.9379 101.665C61.3846 101.874 60.8253 102.065 60.2607 102.24C59.1097 102.597 57.9366 102.883 56.7498 103.092C56.4776 103.14 56.2046 103.183 55.931 103.223C55.8957 103.228 55.791 103.257 55.7487 103.249C56.0039 103.296 55.9423 103.224 55.7893 103.242C55.622 103.262 55.4549 103.283 55.2874 103.301C54.7103 103.362 54.1312 103.405 53.5513 103.428C52.3969 103.473 51.2392 103.44 50.0897 103.324C49.9387 103.308 49.788 103.292 49.6373 103.274C49.6493 103.275 49.4582 103.257 49.4566 103.251C49.4649 103.281 49.7803 103.298 49.5006 103.256C49.2002 103.212 48.9005 103.165 48.6017 103.11C48.0185 103.004 47.4393 102.874 46.8662 102.722C46.3052 102.573 45.7499 102.402 45.2023 102.21C44.9415 102.118 44.6825 102.022 44.4253 101.92C44.2831 101.864 44.1339 101.814 43.9971 101.746C44.027 101.761 44.2833 101.87 44.0645 101.773C43.9797 101.735 43.8945 101.699 43.8099 101.66C42.7202 101.17 41.6715 100.59 40.6766 99.9278C40.4221 99.7584 40.1711 99.5838 39.9238 99.4041C39.8057 99.3183 39.6893 99.23 39.5719 99.1432C39.3125 98.9513 39.7344 99.2762 39.5743 99.1462C39.4981 99.0843 39.4198 99.0247 39.3432 98.9633C38.8369 98.5571 38.348 98.1294 37.8775 97.6822C37.4075 97.2357 36.9485 96.7728 36.5238 96.2827C36.4535 96.2016 36.3847 96.1194 36.3171 96.0361C36.1654 95.8489 36.482 96.2892 36.2558 95.9529C36.1609 95.8117 36.0638 95.6726 35.978 95.5254C35.9256 95.4355 35.8849 95.334 35.8285 95.2472C35.7117 95.0673 35.9078 95.5172 35.792 95.1667C35.7257 94.9656 35.6729 94.7666 35.6371 94.5573C35.5171 93.8571 34.6203 93.4015 33.9727 93.6113C33.2185 93.8556 32.8992 94.5272 33.0277 95.2774Z"/>
</mask>
<path d="M33.0277 95.2774C33.323 97.0013 34.6771 98.3646 35.8906 99.5276C36.8988 100.494 37.9956 101.376 39.1512 102.16C41.2752 103.599 43.6679 104.676 46.1469 105.334C51.061 106.639 56.3322 106.325 61.1579 104.797C66.1067 103.229 70.6798 100.441 74.3457 96.7625C78.1918 92.903 81.095 87.9677 82.1885 82.5982C82.9171 79.0197 83.0427 75.0045 81.7928 71.5235C80.6895 68.4507 78.6686 65.7144 75.8935 63.9597C73.3903 62.3769 70.3169 61.7366 67.3989 62.2322C65.0266 62.6351 62.805 63.9672 61.2463 65.7905C57.8642 69.7468 57.237 75.523 59.6587 80.1283C61.1846 83.0299 63.8461 85.3192 66.7484 86.7718C69.831 88.3146 73.2603 89.0305 76.6912 89.1575C83.4951 89.4092 90.4341 87.2928 96.1297 83.6046C99.0972 81.6831 101.815 79.3048 104.303 76.8005C106.858 74.23 109.174 71.4183 111.229 68.433C112.212 67.0053 113.129 65.5332 113.981 64.0242C114.33 63.4073 114.148 62.516 113.496 62.1711C112.855 61.8321 112.017 61.9983 111.645 62.657C110.803 64.1467 109.899 65.6002 108.93 67.0108C108.44 67.7252 107.934 68.4286 107.412 69.1204C107 69.6672 106.527 70.2664 105.971 70.9379C103.804 73.5562 101.409 75.9862 98.8216 78.189C98.1621 78.7504 97.4908 79.2986 96.8057 79.8285C96.9656 79.7047 96.6348 79.9579 96.5774 80.0009C96.4144 80.1232 96.2502 80.244 96.0849 80.3631C95.7524 80.6027 95.4152 80.8358 95.0738 81.0625C93.7578 81.936 92.3786 82.7137 90.9533 83.3935C90.5933 83.5652 90.2304 83.7305 89.8647 83.8896C89.8092 83.9137 89.5556 84.0222 89.7819 83.9266C89.7043 83.9594 89.6266 83.9915 89.5488 84.0235C89.3345 84.1116 89.1194 84.1975 88.9035 84.2812C88.1366 84.5787 87.3591 84.8488 86.5728 85.0903C85.0416 85.5606 83.4768 85.923 81.8934 86.1652C81.8103 86.178 81.7272 86.1903 81.644 86.2024C81.6579 86.2004 81.2488 86.2554 81.4493 86.2299C81.6498 86.2043 81.2404 86.2549 81.2544 86.2533C81.1711 86.2633 81.0877 86.2729 81.0043 86.2823C80.588 86.3288 80.1708 86.3668 79.753 86.3961C78.9624 86.4516 78.1694 86.4753 77.3769 86.4655C76.5679 86.4556 75.7595 86.4106 74.9547 86.3284C74.7695 86.3095 74.5847 86.2879 74.3999 86.2658C74.1308 86.2338 74.3358 86.2583 74.3909 86.2659C74.2681 86.2489 74.1456 86.231 74.0232 86.2122C73.6155 86.1496 73.2092 86.0771 72.8052 85.9944C72.0395 85.8376 71.2802 85.6461 70.5353 85.4089C70.1824 85.2965 69.8327 85.1742 69.4867 85.0418C69.4098 85.0124 69.333 84.9825 69.2565 84.952C69.2717 84.9581 68.8966 84.8058 69.0751 84.8797C69.2534 84.9536 68.8814 84.7949 68.8962 84.8014C68.7833 84.7513 68.6708 84.7002 68.5589 84.6479C67.8513 84.3172 67.1647 83.9416 66.5064 83.5211C66.1957 83.3226 65.8915 83.1138 65.5948 82.895C65.5739 82.8796 65.2528 82.6325 65.4781 82.8095C65.4138 82.759 65.35 82.708 65.2865 82.6565C65.1279 82.5279 64.9719 82.3961 64.8185 82.2613C64.2208 81.736 63.6643 81.1637 63.1605 80.5474C63.0959 80.4683 63.0315 80.3889 62.969 80.308C63.003 80.3521 63.1109 80.5003 62.9578 80.2889C62.8476 80.1367 62.7377 79.9845 62.6327 79.8285C62.4542 79.563 62.2865 79.2901 62.1306 79.0107C61.993 78.7642 61.8646 78.5126 61.7457 78.2565C61.7196 78.2002 61.695 78.1432 61.6687 78.0869C61.537 77.8054 61.7465 78.3003 61.6778 78.1121C61.6198 77.9537 61.553 77.7985 61.496 77.6396C61.3024 77.0999 61.15 76.5453 61.0404 75.9824C61.0148 75.8509 60.9916 75.7188 60.9707 75.5864C60.9602 75.52 60.9635 75.4273 60.938 75.3662C61.0288 75.5837 60.9654 75.5923 60.9528 75.4618C60.9245 75.1683 60.8971 74.8757 60.8861 74.5808C60.8655 74.0272 60.8848 73.4721 60.9432 72.9212C60.9508 72.8493 60.9618 72.7775 60.9682 72.7054C60.9859 72.5076 60.9118 73.0596 60.9613 72.7648C60.9828 72.6367 61.0024 72.5085 61.026 72.3808C61.0785 72.0983 61.1412 71.8178 61.2142 71.5399C61.2832 71.2774 61.3613 71.0172 61.4484 70.7601C61.485 70.6523 61.5231 70.545 61.5629 70.4383C61.5876 70.3717 61.6131 70.3054 61.6391 70.2393C61.6546 70.1996 61.6704 70.1601 61.6864 70.1206C61.7419 69.9862 61.7293 70.0156 61.6487 70.2089C61.793 70.0643 61.8785 69.7062 61.9747 69.5192C62.1033 69.2693 62.2413 69.0241 62.3884 68.7846C62.5202 68.5701 62.6594 68.3601 62.8057 68.1553C62.8428 68.1034 63.0755 67.7714 62.9499 67.9572C62.8207 68.1482 62.9775 67.9252 62.9996 67.898C63.0523 67.8333 63.1056 67.7693 63.1598 67.7059C63.5018 67.3059 63.8742 66.9319 64.2743 66.5901C64.3698 66.5085 64.5163 66.4243 64.5952 66.3277C64.5787 66.3478 64.3343 66.5205 64.5192 66.3887C64.5642 66.3566 64.6082 66.3232 64.6532 66.291C64.8784 66.1299 65.1107 65.9787 65.3492 65.8382C65.577 65.7041 65.8104 65.5799 66.0489 65.4659C66.171 65.4075 66.5071 65.3281 66.147 65.4139C66.291 65.3796 66.4403 65.2964 66.5802 65.2464C67.1074 65.0577 67.652 64.9185 68.2049 64.83C68.2516 64.8225 68.3408 64.8222 68.379 64.8038C68.1915 64.894 68.1408 64.8318 68.283 64.819C68.4319 64.8055 68.5799 64.7894 68.7291 64.7799C69.034 64.7605 69.3397 64.7558 69.645 64.7651C69.9296 64.7737 70.2119 64.7992 70.4951 64.8267C70.7434 64.8507 70.4572 64.8153 70.424 64.8151C70.5028 64.8156 70.5884 64.8395 70.6663 64.8524C70.8469 64.8821 71.0267 64.9162 71.2055 64.9547C71.8719 65.098 72.527 65.2977 73.1577 65.5569C72.8941 65.4485 73.1307 65.5477 73.196 65.5774C73.2812 65.6163 73.3661 65.6562 73.4503 65.6972C73.5849 65.7629 73.7182 65.8312 73.85 65.9023C74.1791 66.0797 74.4994 66.2737 74.8095 66.4827C74.9646 66.5872 75.1161 66.6966 75.267 66.8073C75.4714 66.9572 75.2992 66.8318 75.2603 66.8007C75.3334 66.8591 75.4064 66.9177 75.4785 66.9775C75.7675 67.217 76.0453 67.4699 76.3115 67.7345C76.5652 67.9868 76.8084 68.2497 77.0404 68.5221C77.1384 68.6372 77.233 68.7549 77.3284 68.8721C77.5582 69.1547 77.2304 68.7298 77.3591 68.9125C77.4354 69.0209 77.5164 69.1259 77.5927 69.2343C78.0078 69.8247 78.3764 70.4479 78.6954 71.0954C78.7711 71.2491 78.8439 71.4043 78.914 71.5606C78.9429 71.625 79.044 71.8637 78.9361 71.6042C78.9654 71.6745 78.994 71.7452 79.022 71.816C79.1623 72.1701 79.2882 72.5298 79.3993 72.8941C79.6098 73.5846 79.7686 74.2923 79.8665 75.0077C79.8253 74.7069 79.8587 74.967 79.8669 75.0428C79.8784 75.1491 79.8885 75.2555 79.8981 75.3619C79.9159 75.5613 79.9312 75.7608 79.9442 75.9606C79.9766 76.4598 79.9941 76.9601 79.9966 77.4604C80.0061 79.4596 79.8143 81.0512 79.3337 82.9549C79.1521 83.6741 78.9369 84.3848 78.6912 85.0847C78.5968 85.3535 78.4979 85.6206 78.3946 85.8861C78.3373 86.0334 78.2786 86.1801 78.2186 86.3263C78.1947 86.3845 78.1722 86.4443 78.146 86.5013C78.301 86.1641 78.1593 86.4666 78.1334 86.5261C77.6543 87.6237 77.0995 88.6878 76.478 89.7112C76.1593 90.236 75.8229 90.75 75.4704 91.2526C75.2985 91.4976 75.1229 91.7398 74.9435 91.9792C74.8654 92.0835 74.6946 92.3214 74.8686 92.0809C74.7582 92.2335 74.635 92.3791 74.5168 92.5256C73.7642 93.4582 72.9544 94.3443 72.0956 95.1797C71.6659 95.5978 71.2238 96.0032 70.7704 96.3955C70.5556 96.5814 70.3383 96.7643 70.1185 96.9441C69.9964 97.0441 69.8735 97.1431 69.7499 97.2411C69.7005 97.2804 69.6507 97.3191 69.6012 97.3584C69.3678 97.5439 69.7946 97.2128 69.5757 97.3783C67.6409 98.8408 65.5617 100.097 63.3474 101.088C63.2189 101.146 63.0898 101.202 62.9608 101.258C62.8815 101.293 62.6818 101.4 62.982 101.25C62.9271 101.278 62.866 101.299 62.8089 101.322C62.5204 101.441 62.2299 101.556 61.9379 101.665C61.3846 101.874 60.8253 102.065 60.2607 102.24C59.1097 102.597 57.9366 102.883 56.7498 103.092C56.4776 103.14 56.2046 103.183 55.931 103.223C55.8957 103.228 55.791 103.257 55.7487 103.249C56.0039 103.296 55.9423 103.224 55.7893 103.242C55.622 103.262 55.4549 103.283 55.2874 103.301C54.7103 103.362 54.1312 103.405 53.5513 103.428C52.3969 103.473 51.2392 103.44 50.0897 103.324C49.9387 103.308 49.788 103.292 49.6373 103.274C49.6493 103.275 49.4582 103.257 49.4566 103.251C49.4649 103.281 49.7803 103.298 49.5006 103.256C49.2002 103.212 48.9005 103.165 48.6017 103.11C48.0185 103.004 47.4393 102.874 46.8662 102.722C46.3052 102.573 45.7499 102.402 45.2023 102.21C44.9415 102.118 44.6825 102.022 44.4253 101.92C44.2831 101.864 44.1339 101.814 43.9971 101.746C44.027 101.761 44.2833 101.87 44.0645 101.773C43.9797 101.735 43.8945 101.699 43.8099 101.66C42.7202 101.17 41.6715 100.59 40.6766 99.9278C40.4221 99.7584 40.1711 99.5838 39.9238 99.4041C39.8057 99.3183 39.6893 99.23 39.5719 99.1432C39.3125 98.9513 39.7344 99.2762 39.5743 99.1462C39.4981 99.0843 39.4198 99.0247 39.3432 98.9633C38.8369 98.5571 38.348 98.1294 37.8775 97.6822C37.4075 97.2357 36.9485 96.7728 36.5238 96.2827C36.4535 96.2016 36.3847 96.1194 36.3171 96.0361C36.1654 95.8489 36.482 96.2892 36.2558 95.9529C36.1609 95.8117 36.0638 95.6726 35.978 95.5254C35.9256 95.4355 35.8849 95.334 35.8285 95.2472C35.7117 95.0673 35.9078 95.5172 35.792 95.1667C35.7257 94.9656 35.6729 94.7666 35.6371 94.5573C35.5171 93.8571 34.6203 93.4015 33.9727 93.6113C33.2185 93.8556 32.8992 94.5272 33.0277 95.2774Z" fill="black" stroke="black" stroke-width="29.4977" mask="url(#path-25-inside-1_1120_12297)"/>
<path d="M108.552 171.184C111.599 165.543 111.146 165.882 113.925 158.004C119.028 143.538 112.72 133.461 117.429 130.225C120.408 128.179 124.381 129.127 127.491 133.167C130.329 136.853 129.864 142.645 129.328 145.797C129.125 146.988 129.915 148.163 131.118 148.274C131.777 148.335 132.567 148.399 133.473 148.457C138.57 148.783 142.473 153.298 144.927 157.362C149.468 164.885 152.151 175.34 147.368 183.336C145.581 186.323 143.084 189.084 140.441 191.341C138.966 192.6 133.255 197.113 125.953 196.313L108.552 171.184Z" fill="white" stroke="black" stroke-width="3" stroke-miterlimit="10"/>
<path d="M142.102 170.988C144.758 169.937 146.929 169.863 148.804 170.703" stroke="black" stroke-width="3" stroke-linecap="round"/>
<path d="M139.989 163.464C142.948 162.55 145.416 162.608 147.603 163.588" stroke="black" stroke-width="3" stroke-linecap="round"/>
<path d="M136.559 156.449C139.519 155.534 141.986 155.593 144.174 156.572" stroke="black" stroke-width="3" stroke-linecap="round"/>
<path d="M52 186C55.4874 186.918 71.3499 184.666 81.5014 183.251C97.8384 180.974 109.558 169.295 111.748 167.506C112.52 166.876 123.689 184.334 129.124 193.99C134.931 204.308 94.6095 239.705 64.1606 236.485C49.6111 234.947 35.6625 223.092 35.5023 207.235C35.3558 192.745 38.4387 182.431 52 186Z" fill="black" stroke="black" stroke-width="3.5" stroke-miterlimit="10"/>
<path d="M131 198.001C131 207.002 105.681 235.684 60.6738 232.44" stroke="white" stroke-width="3.5" stroke-miterlimit="10" stroke-linecap="round"/>
</svg>
