<svg width="20" height="21" viewBox="0 0 20 21" fill="none" xmlns="http://www.w3.org/2000/svg">
<g clip-path="url(#clip0_749_12163)">
<path d="M10.0001 2.16663C5.39175 2.16663 1.66675 5.89163 1.66675 10.5C1.66675 15.1083 5.39175 18.8333 10.0001 18.8333C14.6084 18.8333 18.3334 15.1083 18.3334 10.5C18.3334 5.89163 14.6084 2.16663 10.0001 2.16663ZM13.5834 14.0833C13.2584 14.4083 12.7334 14.4083 12.4084 14.0833L10.0001 11.675L7.59175 14.0833C7.26675 14.4083 6.74175 14.4083 6.41675 14.0833C6.09175 13.7583 6.09175 13.2333 6.41675 12.9083L8.82508 10.5L6.41675 8.09163C6.09175 7.76663 6.09175 7.24163 6.41675 6.91663C6.74175 6.59163 7.26675 6.59163 7.59175 6.91663L10.0001 9.32496L12.4084 6.91663C12.7334 6.59163 13.2584 6.59163 13.5834 6.91663C13.9084 7.24163 13.9084 7.76663 13.5834 8.09163L11.1751 10.5L13.5834 12.9083C13.9001 13.225 13.9001 13.7583 13.5834 14.0833Z" fill="#C8C8C8"/>
</g>
<defs>
<clipPath id="clip0_749_12163">
<rect width="20" height="20" fill="white" transform="translate(0 0.5)"/>
</clipPath>
</defs>
</svg>
