<svg width="24" height="24" viewBox="0 0 24 24" fill="none" xmlns="http://www.w3.org/2000/svg">
<g clip-path="url(#clip0_705_12483)">
<path d="M19.25 13H13V19.25C13 19.9375 12.4375 20.5 11.75 20.5C11.0625 20.5 10.5 19.9375 10.5 19.25V13H4.25C3.5625 13 3 12.4375 3 11.75C3 11.0625 3.5625 10.5 4.25 10.5H10.5V4.25C10.5 3.5625 11.0625 3 11.75 3C12.4375 3 13 3.5625 13 4.25V10.5H19.25C19.9375 10.5 20.5 11.0625 20.5 11.75C20.5 12.4375 19.9375 13 19.25 13Z" fill="white"/>
</g>
<defs>
<clipPath id="clip0_705_12483">
<rect width="24" height="24" fill="white"/>
</clipPath>
</defs>
</svg>
