<svg width="30" height="30" viewBox="0 0 30 30" fill="none" xmlns="http://www.w3.org/2000/svg">
<g clip-path="url(#clip0_431_3592)">
<path d="M21.25 3.75H8.75C7.375 3.75 6.25 4.875 6.25 6.25V24.7335C6.25 25.4514 6.98405 25.9354 7.64392 25.6526L14.6061 22.6688C14.8576 22.561 15.1424 22.561 15.3939 22.6688L22.3561 25.6526C23.0159 25.9354 23.75 25.4514 23.75 24.7335V6.25C23.75 4.875 22.625 3.75 21.25 3.75ZM21.25 20.9731C21.25 21.6937 20.5109 22.1777 19.8503 21.8897L15.3997 19.9493C15.1448 19.8381 14.8552 19.8381 14.6003 19.9493L10.1497 21.8897C9.48911 22.1777 8.75 21.6937 8.75 20.9731V7.25C8.75 6.69772 9.19772 6.25 9.75 6.25H20.25C20.8023 6.25 21.25 6.69772 21.25 7.25V20.9731Z" fill="#3F3F3F"/>
</g>
<defs>
<clipPath id="clip0_431_3592">
<rect width="30" height="30" fill="white"/>
</clipPath>
</defs>
</svg>
