<svg width="32" height="32" viewBox="0 0 32 32" fill="none" xmlns="http://www.w3.org/2000/svg">
<g clip-path="url(#clip0_884_1862)">
<path d="M28.0267 6.66406H25.3333V3.97073C25.3333 3.25073 24.7467 2.66406 24.0267 2.66406H23.9867C23.2533 2.66406 22.6667 3.25073 22.6667 3.97073V6.66406H19.9867C19.2667 6.66406 18.68 7.25073 18.6667 7.97073V8.01073C18.6667 8.74406 19.2533 9.33073 19.9867 9.33073H22.6667V12.0107C22.6667 12.7307 23.2533 13.3307 23.9867 13.3174H24.0267C24.7467 13.3174 25.3333 12.7307 25.3333 12.0107V9.33073H28.0267C28.7467 9.33073 29.3333 8.74406 29.3333 8.02406V7.97073C29.3333 7.25073 28.7467 6.66406 28.0267 6.66406ZM21.3333 12.0107V10.6641H19.9867C19.28 10.6641 18.6133 10.3841 18.1067 9.89073C17.6133 9.38406 17.3333 8.7174 17.3333 7.97073C17.3333 7.49073 17.4667 7.05073 17.6933 6.66406H6.66667C5.2 6.66406 4 7.86406 4 9.33073V25.3307C4 26.7974 5.2 27.9974 6.66667 27.9974H22.6667C24.1333 27.9974 25.3333 26.7974 25.3333 25.3307V14.2907C24.9333 14.5174 24.48 14.6641 23.9733 14.6641C22.52 14.6507 21.3333 13.4641 21.3333 12.0107ZM21.28 25.3307H8C7.45333 25.3307 7.13333 24.7041 7.46667 24.2641L10.1067 20.7574C10.3867 20.3841 10.9333 20.4107 11.2 20.7841L13.3333 23.9974L16.8133 19.3574C17.08 19.0107 17.6 18.9974 17.8667 19.3441L21.8 24.2507C22.1467 24.6907 21.84 25.3307 21.28 25.3307Z" fill="#616161"/>
</g>
<defs>
<clipPath id="clip0_884_1862">
<rect width="32" height="32" fill="white"/>
</clipPath>
</defs>
</svg>
