<svg width="10" height="10" viewBox="0 0 10 10" fill="none" xmlns="http://www.w3.org/2000/svg">
<circle cx="5" cy="5" r="5" fill="white"/>
<path d="M6.25781 4.1125C6.21094 3.80261 6.07682 3.55782 5.85547 3.37813C5.63411 3.19844 5.35677 3.10729 5.02344 3.10469C4.72917 3.10729 4.47135 3.18151 4.25 3.32735C4.03125 3.47318 3.86198 3.68672 3.74219 3.96797C3.6224 4.24662 3.5625 4.58125 3.5625 4.97188C3.5625 5.37032 3.6224 5.70886 3.74219 5.9875C3.86458 6.26615 4.03385 6.47709 4.25 6.62032C4.46875 6.76354 4.72396 6.83646 5.01562 6.83907C5.34115 6.83646 5.61589 6.75052 5.83984 6.58125C6.0638 6.40938 6.20312 6.1724 6.25781 5.87032L7.44531 5.87813C7.40104 6.2349 7.27474 6.56563 7.06641 6.87032C6.85807 7.175 6.57682 7.41979 6.22266 7.60469C5.86849 7.78698 5.46094 7.87813 5 7.87813C4.49219 7.87813 4.03906 7.76354 3.64062 7.53438C3.24479 7.30261 2.93359 6.96797 2.70703 6.53047C2.48047 6.09037 2.36719 5.57084 2.36719 4.97188C2.36719 4.37032 2.48047 3.85078 2.70703 3.41328C2.9362 2.97578 3.25 2.64245 3.64844 2.41328C4.04688 2.18151 4.4974 2.06563 5 2.06563C5.4349 2.06563 5.82812 2.14636 6.17969 2.30782C6.53125 2.46927 6.81641 2.70365 7.03516 3.01094C7.25651 3.31823 7.39323 3.68542 7.44531 4.1125H6.25781Z" fill="#FFAB35"/>
</svg>
