<svg width="30" height="31" viewBox="0 0 30 31" fill="none" xmlns="http://www.w3.org/2000/svg">
<path d="M19.3758 18.0008H18.3883L18.0383 17.6633C19.5383 15.9133 20.3133 13.5258 19.8883 10.9883C19.3008 7.51328 16.4008 4.73828 12.9008 4.31328C7.61328 3.66328 3.16328 8.11328 3.81328 13.4008C4.23828 16.9008 7.01328 19.8008 10.4883 20.3883C13.0258 20.8133 15.4133 20.0383 17.1633 18.5383L17.5008 18.8883V19.8758L22.8133 25.1883C23.3258 25.7008 24.1633 25.7008 24.6758 25.1883C25.1883 24.6758 25.1883 23.8383 24.6758 23.3258L19.3758 18.0008ZM11.8758 18.0008C8.76328 18.0008 6.25078 15.4883 6.25078 12.3758C6.25078 9.26328 8.76328 6.75078 11.8758 6.75078C14.9883 6.75078 17.5008 9.26328 17.5008 12.3758C17.5008 15.4883 14.9883 18.0008 11.8758 18.0008Z" fill="#2A2A2A"/>
</svg>
