<svg width="21" height="25" viewBox="0 0 21 25" fill="none" xmlns="http://www.w3.org/2000/svg">
<path d="M1 21.9716C1 17.498 4.62658 13.8714 9.1002 13.8714H11.1252C15.5989 13.8714 19.2254 17.498 19.2254 21.9716V21.9716C19.2254 23.09 18.3188 23.9967 17.2004 23.9967H3.02505C1.90664 23.9967 1 23.09 1 21.9716V21.9716Z" stroke="#949494" stroke-width="2" stroke-linejoin="round"/>
<path d="M3.07438 6.35117C3.29509 5.9661 3.85341 6.28198 4.53824 5.65662C4.76424 5.45024 5.48486 1.61343 10.2848 1.56375C12.7597 1.53813 16.1187 3.81348 16.248 7.84345C16.354 11.1449 13.1522 13.5585 10.4324 13.746C3.93806 14.1938 2.11703 8.02143 3.07438 6.35117Z" stroke="#949494" stroke-width="2" stroke-miterlimit="10" stroke-linecap="round"/>
</svg>
