<svg width="390" height="254" viewBox="0 0 390 254" fill="none" xmlns="http://www.w3.org/2000/svg">
<g clip-path="url(#clip0_846_15640)">
<path d="M373.972 58.29L401.604 34.7279L402.597 71.0284L404.596 70.9737L402.597 71.0284C402.642 72.6762 403.825 74.0716 405.444 74.3854L441.094 81.2985L413.332 104.708C412.072 105.771 411.719 107.566 412.482 109.027L429.305 141.209L393.693 134.1C392.077 133.777 390.453 134.62 389.787 136.128L375.115 169.346L358.469 137.071C357.714 135.606 356.042 134.863 354.448 135.282L319.329 144.521L334.185 111.385C334.859 109.881 334.398 108.11 333.076 107.125L303.956 85.4288L339.126 76.3828C340.722 75.9721 341.819 74.508 341.765 72.8605L340.572 36.5661L369.572 58.4225C370.889 59.4146 372.717 59.3595 373.972 58.29ZM318.353 144.778C318.354 144.778 318.355 144.778 318.356 144.778L318.353 144.778Z" fill="white" stroke="#2A2A2A" stroke-width="4"/>
<path d="M288.173 188.538L286.034 193.404C285.462 194.706 285.87 196.231 287.017 197.073L291.303 200.217L286.164 201.579C284.79 201.944 283.852 203.214 283.909 204.635L284.123 209.946L279.854 206.778C278.712 205.93 277.135 205.989 276.059 206.92L272.04 210.399L271.855 205.086C271.806 203.665 270.776 202.468 269.378 202.208L264.152 201.234L268.191 197.777C269.272 196.853 269.565 195.302 268.897 194.046L266.4 189.353L271.62 190.356C273.017 190.624 274.413 189.886 274.978 188.581L277.09 183.703L279.561 188.409C280.222 189.669 281.669 190.3 283.042 189.928L288.173 188.538Z" fill="white" stroke="#2A2A2A" stroke-width="3.03509"/>
</g>
<path d="M39.9492 119.137C45.3906 119.137 48.8086 120.859 48.8359 123.84C48.8086 126.779 45.3906 128.529 39.9492 128.516C34.5488 128.529 31.0762 126.779 31.0898 123.84C31.0762 120.859 34.5488 119.137 39.9492 119.137ZM28.793 117.551V114.734H37.2695V110.387H40.7148V114.734H51.3789V117.551H28.793ZM31.3359 107.488V104.754H48.6992V106.777C48.7129 108.76 48.7129 110.893 47.9883 113.449L44.5703 113.121C45.1309 110.865 45.1992 109.184 45.2266 107.488H31.3359ZM34.5625 123.84C34.5488 125.18 36.5176 125.863 39.9492 125.863C43.3809 125.863 45.3633 125.18 45.3633 123.84C45.3633 122.459 43.3809 121.721 39.9492 121.734C36.5176 121.721 34.5488 122.459 34.5625 123.84ZM75.4075 117.551V120.34H65.6731V128.488H62.2278V120.34H52.6302V117.551H75.4075ZM55.3098 114.871V104.836H72.6731V114.871H55.3098ZM58.7552 112.137H69.2005V107.598H58.7552V112.137ZM97.6587 103.66V122.445H94.1587V120.477H89.4009V118.098H94.1587V103.66H97.6587ZM76.4947 114.68C81.0474 114.652 87.1998 114.584 92.4634 113.941L92.6548 116.43C90.6861 116.758 88.649 116.99 86.6392 117.141V121.871H83.1392V125.289H98.2056V128.078H79.6666V120.641H83.1392V117.346C80.9107 117.428 78.7916 117.441 76.9048 117.441L76.4947 114.68ZM78.3267 108.965C78.3267 106.312 80.8834 104.494 84.5884 104.508C88.1978 104.494 90.7818 106.312 90.7955 108.965C90.7818 111.631 88.1978 113.354 84.5884 113.34C80.8834 113.354 78.3267 111.631 78.3267 108.965ZM81.6353 108.965C81.6216 110.168 82.8111 110.838 84.5884 110.824C86.2564 110.838 87.4595 110.168 87.4869 108.965C87.4595 107.734 86.2564 107.051 84.5884 107.051C82.8111 107.051 81.6216 107.734 81.6353 108.965ZM113.614 104.699C116.786 104.672 119.316 106.49 119.999 109.156H124.169V103.633H127.642V117.004H124.169V111.945H120.013C119.37 114.68 116.814 116.539 113.614 116.539C109.786 116.539 106.97 114.051 106.997 110.578C106.97 107.174 109.786 104.672 113.614 104.699ZM110.306 110.578C110.292 112.438 111.659 113.613 113.614 113.613C115.501 113.613 116.855 112.438 116.868 110.578C116.855 108.719 115.501 107.584 113.614 107.598C111.659 107.584 110.292 108.719 110.306 110.578ZM111.044 128.242V118.098H114.489V120.504H124.169V118.098H127.642V128.242H111.044ZM114.489 125.426H124.169V123.184H114.489V125.426ZM153.338 117.551V120.34H143.604V128.488H140.159V120.34H130.561V117.551H153.338ZM133.241 114.871V104.836H150.604V114.871H133.241ZM136.686 112.137H147.131V107.598H136.686V112.137ZM160.605 118.562V120.668H170.859V118.562H174.332V128.242H157.16V118.562H160.605ZM154.507 117.305V114.488H177.203V117.305H154.507ZM155.629 110.66C161.179 109.99 164.05 107.283 164.078 104.727V103.879H167.66V104.727C167.66 107.215 170.517 110.031 176.082 110.66L174.851 113.395C170.572 112.848 167.455 111.07 165.855 108.664C164.242 111.07 161.125 112.848 156.886 113.395L155.629 110.66ZM160.605 125.508H170.859V123.32H160.605V125.508ZM201.177 115.391V118.18H178.427V115.391H201.177ZM180.942 123.102V120.312H198.415V128.543H194.997V123.102H180.942ZM181.188 113.395V104.48H198.442V107.215H184.661V110.605H198.688V113.395H181.188ZM37.1055 153.137H40.6328L42.1367 155.064C43.0801 153.971 43.627 152.289 43.6133 150.102C43.627 145.863 41.6035 143.58 38.5547 143.566C35.4785 143.58 33.4688 145.863 33.4688 150.102C33.4688 154.326 35.4785 156.623 38.5547 156.637C38.9512 156.637 39.334 156.596 39.6895 156.514L37.1055 153.137ZM29.2852 150.102C29.2852 143.635 33.2773 139.93 38.5547 139.93C43.791 139.93 47.7969 143.635 47.7969 150.102C47.7969 153.643 46.5938 156.35 44.6523 158.086L47.4688 161.641H43.6133L42.0273 159.672C40.9609 160.068 39.7852 160.273 38.5547 160.273C33.2773 160.273 29.2852 156.541 29.2852 150.102ZM56.4583 160.301C52.3567 160.287 49.8411 157.867 49.8411 154.75C49.8411 152.439 51.304 151.045 53.4641 149.555C52.4251 148.229 51.5637 146.766 51.5637 145.016C51.5637 142.145 53.7102 139.943 56.9505 139.93C60.1223 139.943 62.0774 142.076 62.0637 144.578C62.0774 146.451 61.1067 147.955 59.4387 149.145L58.2766 149.992L61.5852 153.793C62.1048 152.822 62.4192 151.66 62.4192 150.375H65.7825C65.7962 153.055 65.0989 155.133 64.0052 156.582L66.9856 160H62.7473L61.5305 158.633C60.0813 159.795 58.1946 160.287 56.4583 160.301ZM53.7786 154.531C53.7786 155.953 54.8997 157.033 56.6497 157.02C57.5657 157.02 58.4954 156.732 59.343 156.199L55.5559 151.975L55.4192 152.07C54.2981 152.877 53.7786 153.766 53.7786 154.531ZM55.0364 145.07C55.0501 145.891 55.5696 146.725 56.3216 147.682L57.3606 146.984C58.3587 146.355 58.8235 145.658 58.8098 144.797C58.8235 144.031 58.1399 143.197 56.9778 143.211C55.8157 143.211 55.0501 144.059 55.0364 145.07ZM71.6822 160H67.2525L74.1158 140.203H79.3931L86.2291 160H81.8267L80.3365 155.434H73.1724L71.6822 160ZM74.2115 152.234H79.2974L76.8228 144.66H76.6861L74.2115 152.234ZM102.841 143.266C102.855 147.941 104.741 152.494 108.884 154.285L106.751 157.074C103.989 155.734 102.13 153.246 101.091 150.17C100.025 153.438 98.1105 156.117 95.2667 157.512L93.0792 154.668C97.3448 152.74 99.2862 147.941 99.3136 143.266V139.547H102.841V143.266ZM106.095 148.27V145.453H110.989V137.633H114.435V162.57H110.989V148.27H106.095ZM138.19 137.633V162.57H134.662V137.633H138.19ZM118.584 156.746V139.602H122.084V145.672H127.444V139.602H130.889V156.746H118.584ZM122.084 153.93H127.444V148.379H122.084V153.93ZM154.371 140.914C154.357 144.564 157.597 148.461 163.23 149.418L161.699 152.316C157.351 151.455 154.138 149.008 152.525 145.822C150.884 148.98 147.658 151.441 143.351 152.316L141.847 149.418C147.384 148.434 150.625 144.523 150.652 140.914V139.109H154.371V140.914ZM141.273 159.453V156.582H164.05V159.453H141.273Z" fill="#2A2A2A"/>
<path d="M32.2812 190.531C34.1641 190.539 35.5156 192.188 35.6719 194.797H39V189.438H39.9688V203.234H39V195.609H35.6797C35.5781 198.336 34.2109 200.062 32.2812 200.062C30.2656 200.062 28.8594 198.203 28.875 195.297C28.8594 192.398 30.2656 190.539 32.2812 190.531ZM29.8125 195.297C29.8047 197.602 30.8203 199.188 32.2812 199.188C33.7344 199.188 34.7578 197.602 34.75 195.297C34.7578 192.992 33.7344 191.414 32.2812 191.406C30.8203 191.414 29.8047 192.992 29.8125 195.297ZM53.7969 189.438V197.156H52.8125V194.797H49.9062V193.969H52.8125V192.156H49.9062V191.312H52.8125V189.438H53.7969ZM43.0156 190.938V190.094H48.9531V193.688H44.0156V195.828C46.7578 195.828 48.125 195.797 49.875 195.5L49.9531 196.328C48.1797 196.633 46.7812 196.664 44 196.672H43.0469V192.906H47.9688V190.938H43.0156ZM44.8906 203.016V197.719H45.8906V199.469H52.8281V197.719H53.7969V203.016H44.8906ZM45.8906 202.203H52.8281V200.281H45.8906V202.203ZM67.2188 190.891V192.281C67.2031 193.977 67.2031 195.844 66.7188 198.562L65.7188 198.438C66.2266 195.844 66.2266 193.938 66.2344 192.281V191.719H57.625V190.891H67.2188ZM56.2656 201.172V200.328H61.3281V195.344H62.2969V200.328H68.8281V201.172H56.2656ZM85.6094 189.438V199.125H84.6719V189.438H85.6094ZM73.875 192.062V191.25H76.8906V189.547H77.875V191.25H80.9062V192.062H73.875ZM74.5 195.328C74.5078 193.828 75.6875 192.836 77.375 192.828C79.0703 192.836 80.2422 193.828 80.25 195.328C80.2422 196.812 79.0703 197.812 77.375 197.812C75.6875 197.812 74.5078 196.812 74.5 195.328ZM75.4062 195.328C75.3984 196.312 76.1797 197.016 77.375 197C78.5625 197.016 79.3516 196.312 79.3594 195.328C79.3516 194.328 78.5625 193.617 77.375 193.609C76.1797 193.617 75.3984 194.328 75.4062 195.328ZM75.6719 202.391C77.9375 202.086 80.5625 200.742 80.5781 198.938V198.531H81.5625V198.938C81.5547 200.742 84.1953 202.086 86.4688 202.391L86.0781 203.156C84.0625 202.852 81.8906 201.859 81.0625 200.312C80.2266 201.859 78.0547 202.852 76.0312 203.156L75.6719 202.391ZM80.4844 194.594V193.766H82.1562V189.656H83.125V198.062H82.1562V194.594H80.4844ZM98.5156 189.438V192.656H100.641V193.5H98.5156V196.5H97.5312V189.438H98.5156ZM87.8281 196C91.3125 195.172 93.4922 193.367 93.6875 191H88.4219V190.156H94.7656C94.7656 193.562 92.1875 195.852 88.2188 196.828L87.8281 196ZM89.8281 197.969V197.141H98.5156V200.422H90.8281V202.266H99.0469V203.078H89.8594V199.625H97.5312V197.969H89.8281ZM108.125 190.188V193.922H103.188V196.203C105.953 196.203 107.32 196.164 109.031 195.875L109.125 196.688C107.367 197 105.969 197.031 103.172 197.016H102.219V193.125H107.141V191.016H102.188V190.188H108.125ZM102.359 202.5C104.078 201.867 105.234 200.344 105.234 199V198.078H106.188V199C106.18 200.281 106.906 201.641 108.266 202.391C109.648 201.57 110.398 200.086 110.406 199V198.078H111.359V199C111.359 200.438 112.477 201.898 114.234 202.5L113.734 203.266C112.344 202.75 111.336 201.742 110.859 200.547C110.445 201.688 109.594 202.797 108.297 203.359C106.945 202.836 106.078 201.773 105.68 200.578C105.195 201.727 104.203 202.75 102.875 203.266L102.359 202.5ZM109.109 195.156V194.328H111.984V192.266H109.109V191.453H111.984V189.438H112.969V197.766H111.984V195.156H109.109ZM117.25 196.578C119.828 196.586 121.484 196.5 123.422 196.109L123.547 196.953C121.547 197.312 119.875 197.414 117.25 197.422H116.219V190.641H122.594V191.484H117.203V196.578H117.25ZM118.016 203V198.781H119V202.172H127.188V203H118.016ZM121.672 194.156V193.344H125.812V189.438H126.797V199.516H125.812V194.156H121.672ZM136.906 190.094C138.789 190.094 140.188 191.188 140.406 192.812H143.5V189.438H144.484V196.812H143.5V193.641H140.414C140.219 195.297 138.805 196.406 136.906 196.406C134.82 196.406 133.352 195.125 133.359 193.25C133.352 191.383 134.82 190.094 136.906 190.094ZM134.297 193.25C134.305 194.578 135.375 195.57 136.906 195.562C138.406 195.57 139.484 194.578 139.484 193.25C139.484 191.906 138.406 190.93 136.906 190.938C135.375 190.93 134.305 191.906 134.297 193.25ZM135.719 203.016V197.547H136.703V199.438H143.5V197.547H144.484V203.016H135.719ZM136.703 202.203H143.5V200.234H136.703V202.203ZM159.547 197.547V198.375H153.688V203.203H152.734V198.375H146.938V197.547H159.547ZM148.609 195.531V190.219H157.875V195.531H148.609ZM149.578 194.75H156.906V191.047H149.578V194.75ZM173.375 195.906V196.703H160.766V195.906H173.375ZM162.312 198.719V197.953H171.781V200.781H163.312V202.266H172.25V203.016H162.344V200.047H170.797V198.719H162.312ZM162.375 190.641V189.906H171.734V192.625H163.391V193.984H171.969V194.734H162.422V191.922H170.75V190.641H162.375ZM39.9219 212.438V226.234H38.9375V212.438H39.9219ZM29.1562 218.297C29.1562 215.398 30.6016 213.539 32.6406 213.531C34.6641 213.539 36.125 215.398 36.125 218.297C36.125 221.203 34.6641 223.062 32.6406 223.062C30.6016 223.062 29.1562 221.203 29.1562 218.297ZM30.1094 218.297C30.1094 220.602 31.1484 222.188 32.6406 222.188C34.1328 222.188 35.1641 220.602 35.1562 218.297C35.1641 215.992 34.1328 214.414 32.6406 214.406C31.1484 214.414 30.1094 215.992 30.1094 218.297ZM54.1719 212.438V226.219H53.2188V212.438H54.1719ZM42.3125 222.656C44.1953 221.539 45.4297 219 45.4375 216.422V214.953H42.6406V214.125H49.0469V214.953H46.3906V216.422C46.3828 218.859 47.5703 221.258 49.4375 222.328L48.8281 223.078C47.4375 222.234 46.4062 220.664 45.9219 218.82C45.4297 220.812 44.3516 222.508 42.9375 223.391L42.3125 222.656ZM47.9688 218.297V217.469H50.4531V212.797H51.3906V225.469H50.4531V218.297H47.9688ZM66.3594 221.172C69.3047 221.18 71.1719 222.102 71.1875 223.688C71.1719 225.25 69.3047 226.172 66.3594 226.172C63.4219 226.172 61.5625 225.25 61.5625 223.688C61.5625 222.102 63.4219 221.18 66.3594 221.172ZM60.125 219.766V218.953H65.4844V216.203H66.4531V218.953H72.6875V219.766H60.125ZM61.6406 213.984V213.156H71.0469V214.344C71.0469 215.461 71.0469 216.562 70.6719 217.984L69.7031 217.875C70.0781 216.453 70.0781 215.43 70.0781 214.344V213.984H61.6406ZM62.5469 223.688C62.5312 224.711 64.0703 225.375 66.3594 225.375C68.6641 225.375 70.1797 224.711 70.1875 223.688C70.1797 222.633 68.6641 221.961 66.3594 221.953C64.0703 221.961 62.5312 222.633 62.5469 223.688ZM86.5469 220.547V221.375H80.6875V226.203H79.7344V221.375H73.9375V220.547H86.5469ZM75.6094 218.531V213.219H84.875V218.531H75.6094ZM76.5781 217.75H83.9062V214.047H76.5781V217.75ZM99.1094 212.438V222.578H98.125V212.438H99.1094ZM88.1406 216.781C88.1328 214.812 89.6562 213.438 91.7031 213.438C93.7422 213.438 95.2578 214.812 95.2656 216.781C95.2578 218.773 93.7422 220.148 91.7031 220.141C89.6562 220.148 88.1328 218.773 88.1406 216.781ZM89.0938 216.781C89.0938 218.227 90.2109 219.273 91.7031 219.266C93.1797 219.273 94.3047 218.227 94.3125 216.781C94.3047 215.359 93.1797 214.305 91.7031 214.297C90.2109 214.305 89.0938 215.359 89.0938 216.781ZM90.3125 225.891V221.531H91.2969V225.062H99.5625V225.891H90.3125ZM109.219 214V214.594C109.203 215.617 109.203 217.484 108.797 220.125L107.812 220.047C108.203 217.633 108.234 215.883 108.234 214.828H102.25V214H109.219ZM101.453 222.25C102.398 222.25 103.469 222.242 104.578 222.219V217.938H105.562V222.188C107.133 222.133 108.758 222.031 110.234 221.844L110.297 222.609C107.375 223.047 104.086 223.117 101.609 223.109L101.453 222.25ZM111.172 226.219V212.438H112.156V218.281H114.516V219.141H112.156V226.219H111.172ZM130.031 212.438V216.188H132.156V217.047H130.031V220.734H129.047V212.438H130.031ZM119.344 214.797V213.969H122.969V212.312H123.938V213.969H127.562V214.797H119.344ZM120.156 218.031C120.148 216.539 121.461 215.578 123.453 215.578C125.422 215.578 126.727 216.539 126.734 218.031C126.727 219.523 125.422 220.477 123.453 220.469C121.461 220.477 120.148 219.523 120.156 218.031ZM121.094 218.031C121.086 219.031 122.031 219.695 123.453 219.703C124.852 219.695 125.797 219.031 125.812 218.031C125.797 217.039 124.852 216.359 123.453 216.359C122.031 216.359 121.086 217.039 121.094 218.031ZM121.422 226.016V221.578H130.031V226.016H121.422ZM122.375 225.203H129.047V222.375H122.375V225.203ZM136.562 214.125C136.547 216.844 136.117 220.156 134.031 222.812L133.234 222.328C135.07 220.156 135.602 217.43 135.688 214.953H133.453V214.125H136.562ZM136.328 223.312C138.352 220.836 138.68 217.438 138.727 214.953H137.016V214.125H139.609C139.602 215.211 139.57 216.539 139.375 217.938H141.438V212.828H142.375V225.484H141.438V218.766H139.234C138.906 220.492 138.281 222.281 137.109 223.797L136.328 223.312ZM143.953 226.219V212.438H144.906V226.219H143.953ZM33.0781 239.969C33.0781 242.273 34.6484 244.539 36.5781 245.484L35.9844 246.25C34.4766 245.484 33.1875 243.922 32.6172 242.062C32.0312 244.062 30.6641 245.719 29.1094 246.5L28.5156 245.75C30.4766 244.812 32.125 242.453 32.125 239.969V238.688H28.875V237.875H32.1094V235.656H33.0938V237.875H36.2969V238.688H33.0781V239.969ZM38.2344 249.219V235.438H39.2188V241.188H41.5938V242.047H39.2188V249.219H38.2344ZM53.3594 236.281V237.312C53.3516 238.477 53.3516 239.906 52.9844 241.859H55.0625V242.688H42.4375V241.859H51.9922C52.3828 239.891 52.3828 238.484 52.375 237.312V237.109H44.0625V236.281H53.3594ZM44.125 248.875V244.359H45.1094V248.031H53.7812V248.875H44.125ZM60.7344 239.969C60.7344 242.273 62.3047 244.539 64.2344 245.484L63.6406 246.25C62.1328 245.484 60.8438 243.922 60.2734 242.062C59.6875 244.062 58.3203 245.719 56.7656 246.5L56.1719 245.75C58.1328 244.812 59.7812 242.453 59.7812 239.969V238.688H56.5312V237.875H59.7656V235.656H60.75V237.875H63.9531V238.688H60.7344V239.969ZM65.8906 249.219V235.438H66.875V241.188H69.25V242.047H66.875V249.219H65.8906ZM81.0156 236.281V237.312C81.0078 238.477 81.0078 239.906 80.6406 241.859H82.7188V242.688H70.0938V241.859H79.6484C80.0391 239.891 80.0391 238.484 80.0312 237.312V237.109H71.7188V236.281H81.0156ZM71.7812 248.875V244.359H72.7656V248.031H81.4375V248.875H71.7812ZM94.75 237.906V238.719H87.75V237.906H90.75V235.859H91.75V237.906H94.75ZM88.2969 242.844C88.2891 241.031 89.5312 239.758 91.25 239.75C92.9609 239.758 94.2031 241.031 94.2031 242.844C94.2031 244.672 92.9609 245.953 91.25 245.953C89.5312 245.953 88.2891 244.672 88.2969 242.844ZM89.1875 242.844C89.1797 244.125 90.0469 245.086 91.25 245.078C92.4453 245.086 93.3203 244.125 93.3281 242.844C93.3203 241.578 92.4453 240.609 91.25 240.594C90.0469 240.609 89.1797 241.578 89.1875 242.844ZM95.5312 248.516V235.781H96.4531V241.312H98.5312V235.438H99.4688V249.219H98.5312V242.141H96.4531V248.516H95.5312ZM112.969 235.438V242.516H111.984V240.953H108.125V240.141H111.984V238.344H108.352C107.5 240.555 105.289 242.07 102.234 242.828L101.859 242C105.305 241.172 107.453 239.406 107.656 237H102.547V236.172H108.75C108.75 236.648 108.695 237.102 108.602 237.531H111.984V235.438H112.969ZM104.109 244V243.188H112.969V246.406H105.125V248.266H113.5V249.078H104.156V245.625H111.984V244H104.109ZM122.406 237.906V238.719H115.406V237.906H118.406V235.859H119.406V237.906H122.406ZM115.953 242.844C115.945 241.031 117.188 239.758 118.906 239.75C120.617 239.758 121.859 241.031 121.859 242.844C121.859 244.672 120.617 245.953 118.906 245.953C117.188 245.953 115.945 244.672 115.953 242.844ZM116.844 242.844C116.836 244.125 117.703 245.086 118.906 245.078C120.102 245.086 120.977 244.125 120.984 242.844C120.977 241.578 120.102 240.609 118.906 240.594C117.703 240.609 116.836 241.578 116.844 242.844ZM123.188 248.516V235.781H124.109V241.312H126.188V235.438H127.125V249.219H126.188V242.141H124.109V248.516H123.188ZM146.062 241.031V241.875H143.734V249.219H142.75V235.438H143.734V241.031H146.062ZM133.734 245.672V236.797H134.703V244.828H134.797C136.875 244.836 138.961 244.68 141.297 244.188L141.422 245.047C139.023 245.523 136.922 245.672 134.797 245.672H133.734ZM157.562 235.438V241.141H159.891V241.984H157.562V249.219H156.578V235.438H157.562ZM147.109 245.734C150.781 243.914 152.781 241.094 153.023 237.766H147.719V236.938H154.031C154.016 240.766 152.117 244.32 147.656 246.516L147.109 245.734ZM173.406 246.547V247.391H160.781V246.547H164V242.711C162.797 242.117 162.062 241.125 162.062 239.875C162.062 237.758 164.133 236.375 167.047 236.359C169.984 236.375 172.047 237.758 172.047 239.875C172.047 241.109 171.336 242.086 170.156 242.688V246.547H173.406ZM163 239.875C163 241.453 164.695 242.555 167.047 242.547C169.391 242.555 171.109 241.453 171.109 239.875C171.109 238.266 169.391 237.18 167.047 237.188C164.695 237.18 163 238.266 163 239.875ZM164.969 246.547H169.172V243.07C168.539 243.25 167.82 243.344 167.047 243.344C166.289 243.344 165.594 243.25 164.969 243.078V246.547ZM176.594 236.688L176.516 244.766H175.469L175.391 236.688H176.594ZM175.156 247.25C175.156 246.789 175.539 246.414 176 246.406C176.453 246.414 176.828 246.789 176.828 247.25C176.828 247.703 176.453 248.086 176 248.078C175.539 248.086 175.156 247.703 175.156 247.25Z" fill="#4D5157"/>
<defs>
<clipPath id="clip0_846_15640">
<rect width="137" height="222" fill="white" transform="translate(253)"/>
</clipPath>
</defs>
</svg>
