<svg width="300" height="174" viewBox="0 0 300 174" fill="none" xmlns="http://www.w3.org/2000/svg">
<g clip-path="url(#clip0_770_15455)">
<rect y="-0.5" width="300" height="175" rx="8" fill="#0189B2"/>
<path d="M256.593 170.839C253.954 155.965 242.089 125.571 216.233 123.708C178.935 121.02 166.473 158.384 164.744 175.677C162.597 197.155 260.906 195.162 256.593 170.839Z" fill="#2A2A2A" stroke="#2A2A2A" stroke-width="1.2259" stroke-miterlimit="10" stroke-linecap="round"/>
<path d="M223.147 146.617C225.507 150.564 228.035 155.455 230.243 161.252C232.501 167.184 233.875 172.622 234.73 177.201" stroke="white" stroke-width="2" stroke-miterlimit="10" stroke-linecap="round"/>
<path d="M189.668 140.641C187.173 144.158 184.301 148.984 182.087 155.096C178.573 164.799 178.289 173.4 178.57 178.871" stroke="white" stroke-width="2" stroke-miterlimit="10" stroke-linecap="round"/>
<path d="M195.236 124.511C194.277 130.007 199.294 135.644 206.739 136.919C214.185 138.194 220.821 134.552 221.78 129.056C222.739 123.56 217.722 117.923 210.276 116.648C202.831 115.373 196.195 119.014 195.236 124.511Z" fill="white" stroke="#2A2A2A" stroke-width="0.914839"/>
<path d="M178.577 71.6029C180.668 69.7067 183.436 72.7025 188.811 70.2589C190.585 69.4524 202.456 47.679 231.657 56.7289C246.714 61.3952 262.632 81.6832 255.537 106.279C249.724 126.429 225.59 134.771 208.733 130.606C168.479 120.66 169.506 79.8276 178.577 71.6029Z" fill="white" stroke="#2A2A2A" stroke-width="2" stroke-miterlimit="10" stroke-linecap="round"/>
<path d="M207.869 81.8531C206.945 84.2587 207.395 85.7923 208.534 86.1609C209.674 86.5296 211.072 85.5937 211.996 83.1881C212.92 80.7825 212.406 79.4173 211.266 79.0486C210.126 78.68 208.793 79.4475 207.869 81.8531Z" fill="#2A2A2A"/>
<path d="M209.121 78.8125L215.961 81.622" stroke="#2A2A2A" stroke-width="1.39705" stroke-miterlimit="10" stroke-linecap="round"/>
<path d="M201.569 78.9235C200.477 81.2933 199.081 82.1246 198.051 81.6498C197.021 81.175 196.746 79.5738 197.838 77.2041C198.93 74.8343 200.25 74.1687 201.28 74.6435C202.31 75.1184 202.661 76.5537 201.569 78.9235Z" fill="#2A2A2A"/>
<path d="M203.145 76.4235L196.723 72.7578" stroke="#2A2A2A" stroke-width="1.39705" stroke-miterlimit="10" stroke-linecap="round"/>
<path d="M234.881 70.6065C232.131 72.7435 228.766 73.9189 225.28 73.9723C221.904 74.0239 218.526 72.9906 215.759 71.0553C212.983 69.1137 210.605 66.2857 209.82 62.9296C209.436 61.2878 209.437 59.5681 209.857 57.9329C210.305 56.1901 211.218 54.6798 212.344 53.2964C214.416 50.751 217.414 48.2035 220.929 48.7559C223.834 49.2124 225.648 52.0751 225.635 54.8705C225.619 58.3505 223.181 61.3245 220.606 63.41C217.827 65.6617 214.444 67.2575 210.829 67.4181C207.325 67.5738 203.801 66.3533 201.033 64.2255C199.643 63.1571 198.422 61.9282 197.363 60.5309C196.337 59.1771 195.494 57.6344 195.055 55.9859C194.843 55.1865 194.728 54.3489 194.739 53.5214C194.746 53.0115 195.183 52.5223 195.714 52.5461C196.237 52.5695 196.697 52.9748 196.69 53.5214C196.687 53.6965 196.689 53.8715 196.699 54.0465C196.704 54.1466 196.712 54.2466 196.721 54.3465C196.725 54.384 196.728 54.4214 196.732 54.4589C196.746 54.5805 196.739 54.5874 196.73 54.4617C196.756 54.834 196.866 55.2204 196.966 55.5784C197.067 55.9394 197.189 56.2941 197.329 56.6417C197.341 56.6704 197.406 56.8249 197.355 56.7063C197.308 56.5954 197.36 56.7172 197.368 56.7342C197.411 56.8302 197.454 56.9261 197.499 57.0212C197.583 57.2007 197.672 57.378 197.765 57.5532C198.137 58.2525 198.572 58.9138 199.047 59.5465C199.157 59.6926 199.065 59.5691 199.042 59.5411C199.067 59.5728 199.092 59.6046 199.117 59.6362C199.176 59.7099 199.235 59.7832 199.294 59.856C199.43 60.0218 199.569 60.1851 199.711 60.3459C199.974 60.6439 200.247 60.9332 200.529 61.2135C200.795 61.4777 201.069 61.7339 201.351 61.9815C201.492 62.1061 201.636 62.2286 201.782 62.3487C201.849 62.4038 201.916 62.4584 201.984 62.5125C202.013 62.5355 202.042 62.5583 202.07 62.5813C202.215 62.6965 201.98 62.5141 202.075 62.5855C202.708 63.0616 203.367 63.498 204.064 63.876C204.423 64.0704 204.789 64.2502 205.163 64.4145C205.212 64.4364 205.262 64.4578 205.312 64.4793C205.301 64.4744 205.162 64.4188 205.267 64.4595C205.355 64.494 205.443 64.5307 205.531 64.5651C205.733 64.6435 205.937 64.7173 206.142 64.7865C206.897 65.041 207.674 65.2326 208.461 65.3552C208.536 65.3669 208.762 65.4063 208.562 65.3717C208.655 65.3877 208.75 65.3947 208.844 65.4047C209.058 65.4277 209.274 65.4455 209.49 65.4581C209.881 65.4808 210.274 65.4863 210.666 65.4738C211.07 65.4609 211.488 65.4458 211.887 65.3767C211.687 65.4113 211.92 65.3708 211.993 65.3593C212.088 65.3444 212.183 65.3284 212.277 65.3113C212.494 65.2721 212.71 65.227 212.925 65.1765C213.707 64.9927 214.473 64.7439 215.216 64.4397C215.253 64.4243 215.291 64.4087 215.329 64.393C215.149 64.4682 215.284 64.4116 215.321 64.3951C215.408 64.356 215.495 64.3181 215.582 64.2785C215.78 64.188 215.976 64.0935 216.171 63.9953C216.524 63.8171 216.87 63.6266 217.21 63.4248C217.562 63.2157 217.907 62.9944 218.244 62.762C218.401 62.6535 218.557 62.5426 218.711 62.4293C218.788 62.3727 218.865 62.3154 218.941 62.2576C218.963 62.2405 219.1 62.1339 219.005 62.209C218.904 62.2879 219.101 62.1321 219.099 62.1334C219.723 61.6368 220.318 61.1028 220.875 60.5322C221.153 60.2469 221.422 59.9517 221.677 59.6455C221.737 59.5741 221.795 59.5022 221.854 59.4296C221.878 59.3985 221.903 59.3669 221.928 59.3359C222.018 59.2237 221.836 59.4607 221.921 59.3442C222.038 59.1835 222.157 59.0248 222.269 58.8606C222.491 58.5342 222.696 58.1962 222.881 57.8469C222.966 57.6846 223.047 57.5199 223.123 57.3528C223.144 57.3051 223.165 57.2572 223.186 57.2092C223.173 57.2406 223.112 57.3946 223.179 57.2248C223.217 57.1272 223.255 57.0298 223.29 56.9312C223.416 56.5773 223.519 56.2143 223.593 55.8457C223.608 55.767 223.623 55.6881 223.636 55.6089C223.64 55.5786 223.66 55.5089 223.656 55.4741C223.658 55.4924 223.629 55.7122 223.646 55.5322C223.662 55.3664 223.676 55.201 223.681 55.0345C223.686 54.8825 223.685 54.7303 223.679 54.5783C223.676 54.5034 223.671 54.4286 223.665 54.3538C223.662 54.3114 223.658 54.269 223.654 54.2267C223.65 54.1904 223.626 54.0017 223.649 54.1675C223.671 54.3258 223.637 54.0941 223.629 54.0484C223.616 53.9768 223.602 53.9055 223.587 53.8344C223.554 53.6839 223.516 53.5347 223.472 53.3873C223.428 53.2419 223.377 53.0996 223.323 52.9578C223.244 52.7489 223.389 53.0928 223.316 52.9423C223.282 52.8708 223.25 52.7986 223.214 52.7278C223.152 52.6052 223.085 52.4849 223.013 52.3676C222.945 52.2558 222.786 52.1047 222.752 51.9814C222.751 51.9779 222.883 52.1428 222.817 52.0641C222.792 52.0347 222.769 52.0041 222.744 51.9745C222.701 51.9228 222.657 51.872 222.612 51.8222C222.51 51.7089 222.402 51.6005 222.289 51.4977C222.247 51.4592 222.204 51.4215 222.16 51.3847C222.131 51.3602 222.101 51.3366 222.072 51.3122C221.997 51.2492 221.996 51.3091 222.134 51.3601C222.015 51.316 221.891 51.1889 221.78 51.1218C221.665 51.0528 221.548 50.9889 221.428 50.9304C221.37 50.9019 221.301 50.8803 221.245 50.8464C221.481 50.9902 221.271 50.8607 221.182 50.8296C220.911 50.7351 220.619 50.7156 220.351 50.6278C220.55 50.693 220.513 50.6464 220.43 50.6404C220.389 50.6374 220.349 50.6325 220.308 50.6294C220.236 50.6239 220.165 50.6202 220.093 50.6179C219.935 50.613 219.777 50.6159 219.619 50.6263C219.543 50.6312 219.468 50.6405 219.393 50.6463C219.259 50.6568 219.59 50.6144 219.456 50.637C219.423 50.6425 219.39 50.647 219.357 50.6525C219.177 50.6827 218.998 50.722 218.821 50.7696C218.659 50.8132 218.499 50.8636 218.342 50.9201C218.257 50.9502 218.175 50.9849 218.091 51.0156C217.954 51.0655 218.234 50.9496 218.102 51.0103C218.041 51.0382 217.98 51.0645 217.92 51.0927C217.57 51.2561 217.232 51.4445 216.907 51.6524C216.75 51.753 216.595 51.858 216.444 51.9672C216.368 52.0218 216.294 52.0781 216.219 52.134C216.373 52.0187 216.257 52.1039 216.226 52.1293C216.174 52.1716 216.122 52.2131 216.07 52.2556C215.77 52.503 215.481 52.7648 215.203 53.0371C214.63 53.5986 214.101 54.2041 213.599 54.8299C213.541 54.9018 213.485 54.9747 213.427 55.0464C213.361 55.1285 213.444 55.0243 213.451 55.0139C213.418 55.0587 213.384 55.1033 213.35 55.1484C213.219 55.3262 213.093 55.5078 212.972 55.693C212.759 56.019 212.564 56.3563 212.388 56.7036C212.299 56.879 212.22 57.0581 212.138 57.2365C212.209 57.0812 212.147 57.2134 212.117 57.2902C212.074 57.3976 212.033 57.5058 211.994 57.6147C211.871 57.9605 211.767 58.3134 211.684 58.6713C211.642 58.8541 211.606 59.0382 211.574 59.2232C211.56 59.3089 211.543 59.3953 211.535 59.4818C211.538 59.4519 211.56 59.2623 211.541 59.4444C211.536 59.4939 211.531 59.5432 211.526 59.5926C211.489 59.9625 211.476 60.3348 211.484 60.7064C211.488 60.88 211.497 61.0535 211.51 61.2266C211.517 61.3134 211.525 61.4 211.534 61.4866C211.54 61.5361 211.546 61.5854 211.551 61.635C211.566 61.7774 211.513 61.3923 211.552 61.6352C211.609 61.9956 211.68 62.3525 211.774 62.7053C211.873 63.0763 211.993 63.4416 212.133 63.7993C212.16 63.8683 212.244 64.0714 212.167 63.891C212.203 63.9752 212.24 64.0589 212.278 64.1422C212.36 64.3224 212.448 64.5004 212.539 64.676C212.727 65.0354 212.934 65.3847 213.157 65.723C213.264 65.8848 213.374 66.0441 213.489 66.2007C213.552 66.2876 213.617 66.3729 213.681 66.4588C213.559 66.2955 213.719 66.5063 213.766 66.5646C214.242 67.1546 214.762 67.7084 215.32 68.2213C215.603 68.4822 215.897 68.7324 216.199 68.9715C216.229 68.9954 216.259 69.019 216.29 69.0429C216.131 68.9175 216.241 69.0057 216.276 69.0311C216.348 69.0846 216.42 69.1389 216.492 69.1919C216.658 69.313 216.827 69.4308 216.998 69.5453C217.627 69.9673 218.287 70.3439 218.971 70.6704C219.133 70.7479 219.297 70.8213 219.462 70.8943C219.503 70.9127 219.627 70.9768 219.441 70.8867C219.476 70.9033 219.513 70.9163 219.548 70.9307C219.655 70.9745 219.763 71.0171 219.87 71.0584C220.218 71.1915 220.571 71.3119 220.928 71.4191C221.3 71.5309 221.676 71.6282 222.055 71.7107C222.235 71.7499 222.416 71.7858 222.598 71.8183C222.689 71.8346 222.779 71.8501 222.87 71.8647C222.922 71.873 222.974 71.8811 223.026 71.8889C223.055 71.8932 223.276 71.924 223.131 71.9046C223.003 71.8875 223.283 71.9226 223.315 71.9261C223.406 71.9365 223.497 71.9459 223.589 71.9546C223.785 71.9733 223.982 71.9882 224.178 71.9992C224.571 72.0214 224.965 72.0284 225.359 72.0203C225.752 72.0123 226.144 71.9893 226.536 71.9513C226.627 71.9424 226.718 71.9327 226.809 71.9222C226.848 71.9177 226.887 71.9129 226.926 71.9083C227.112 71.8867 226.934 71.9091 226.901 71.9126C227.095 71.8917 227.29 71.8548 227.482 71.8206C228.255 71.6831 229.017 71.4863 229.76 71.2308C229.933 71.1711 230.105 71.1084 230.276 71.0424C230.361 71.0094 230.446 70.9746 230.531 70.9411C230.571 70.9253 230.703 70.8679 230.515 70.9487C230.563 70.928 230.612 70.9074 230.659 70.8863C231.019 70.7283 231.373 70.5558 231.718 70.3691C232.042 70.1943 232.359 70.0072 232.668 69.808C232.834 69.7009 232.997 69.5904 233.159 69.4764C233.234 69.4231 233.309 69.3692 233.383 69.3144C233.432 69.2786 233.671 69.096 233.502 69.2273C233.715 69.0612 233.908 68.9416 234.191 68.9416C234.431 68.9416 234.716 69.0479 234.881 69.2273C235.202 69.5766 235.311 70.2722 234.881 70.6065Z" fill="#2A2A2A"/>
<path d="M243.117 109.079C243.732 109.869 246.596 113.543 250.97 113.924C257.293 114.475 263.823 107.884 264.605 100.786C265.483 92.8193 260.802 85.7841 254.149 85.073C248.889 84.5106 244.675 88.9104 244.121 89.511" fill="white"/>
<path d="M243.117 109.079C243.732 109.869 246.596 113.543 250.97 113.924C257.293 114.475 263.823 107.884 264.605 100.786C265.483 92.8193 260.802 85.7841 254.149 85.073C248.889 84.5106 244.675 88.9104 244.121 89.511" stroke="#2A2A2A" stroke-width="2" stroke-miterlimit="10" stroke-linecap="round"/>
<path d="M260.172 98.2027C259.164 97.5218 256.956 96.2296 253.85 95.9626C250.112 95.6414 247.309 96.9966 246.254 97.5755" stroke="#2A2A2A" stroke-width="2" stroke-miterlimit="10" stroke-linecap="round"/>
<path d="M258.024 148.388C257.203 146.34 254.007 140.677 247.782 134.405" stroke="#2A2A2A" stroke-width="2" stroke-linecap="round"/>
<path d="M262.931 145.975C262.36 144.167 260.055 139.317 255.391 134.389" stroke="#2A2A2A" stroke-width="2" stroke-linecap="round"/>
<path d="M262.931 145.975C262.36 144.167 260.055 139.317 255.391 134.389" stroke="#2A2A2A" stroke-width="2" stroke-linecap="round"/>
<path d="M269.503 42.1792L280.734 10.2648L301.226 37.1857L269.503 42.1792Z" fill="white" stroke="#2A2A2A" stroke-width="2"/>
<path d="M260.048 33.9581L247.707 18.1538L267.607 15.6879L260.048 33.9581Z" fill="white" stroke="#2A2A2A" stroke-width="2"/>
</g>
<defs>
<clipPath id="clip0_770_15455">
<rect width="300" height="174" fill="white"/>
</clipPath>
</defs>
</svg>
