<svg width="300" height="174" viewBox="0 0 300 174" fill="none" xmlns="http://www.w3.org/2000/svg">
<g clip-path="url(#clip0_770_15406)">
<rect y="-0.5" width="300" height="175" rx="8" fill="#01A974"/>
<path d="M256.593 172.308C253.954 157.434 242.089 127.04 216.233 125.177C178.935 122.489 166.473 159.853 164.744 177.146C162.597 198.624 260.906 196.63 256.593 172.308Z" fill="#2A2A2A" stroke="#2A2A2A" stroke-width="1.2259" stroke-miterlimit="10" stroke-linecap="round"/>
<path d="M223.147 148.086C225.507 152.033 228.035 156.923 230.243 162.721C232.501 168.652 233.875 174.091 234.73 178.67" stroke="white" stroke-width="2" stroke-miterlimit="10" stroke-linecap="round"/>
<path d="M189.668 142.109C187.173 145.627 184.301 150.453 182.087 156.565C178.573 166.268 178.289 174.869 178.57 180.34" stroke="white" stroke-width="2" stroke-miterlimit="10" stroke-linecap="round"/>
<path d="M195.236 125.979C194.277 131.476 199.294 137.113 206.739 138.388C214.185 139.663 220.821 136.021 221.78 130.525C222.739 125.028 217.722 119.391 210.276 118.116C202.831 116.841 196.195 120.483 195.236 125.979Z" fill="white" stroke="#2A2A2A" stroke-width="0.914839"/>
<path d="M178.577 73.0716C180.668 71.1755 183.436 74.1712 188.811 71.7276C190.585 70.9212 202.456 49.1478 231.657 58.1976C246.714 62.8639 262.632 83.1519 255.537 107.748C249.724 127.897 225.59 136.24 208.733 132.075C168.479 122.129 169.506 81.2963 178.577 73.0716Z" fill="white" stroke="#2A2A2A" stroke-width="2" stroke-miterlimit="10" stroke-linecap="round"/>
<path d="M243.117 110.548C243.732 111.337 246.596 115.012 250.97 115.393C257.293 115.944 263.823 109.353 264.605 102.255C265.483 94.288 260.802 87.2529 254.149 86.5417C248.889 85.9794 244.675 90.3792 244.121 90.9798" fill="white"/>
<path d="M243.117 110.548C243.732 111.337 246.596 115.012 250.97 115.393C257.293 115.944 263.823 109.353 264.605 102.255C265.483 94.288 260.802 87.2529 254.149 86.5417C248.889 85.9794 244.675 90.3792 244.121 90.9798" stroke="#2A2A2A" stroke-width="2" stroke-miterlimit="10" stroke-linecap="round"/>
<path d="M260.172 99.6715C259.164 98.9906 256.956 97.6984 253.85 97.4314C250.112 97.1102 247.309 98.4653 246.254 99.0442" stroke="#2A2A2A" stroke-width="2" stroke-miterlimit="10" stroke-linecap="round"/>
<path d="M207.522 84.2984C205.781 84.2984 204.369 82.9077 204.369 81.1922C204.369 79.4766 205.781 78.0859 207.522 78.0859C209.264 78.0859 210.676 79.4766 210.676 81.1922C210.676 82.9077 209.264 84.2984 207.522 84.2984Z" fill="#2A2A2A"/>
<path d="M206.914 80.4708C207.133 80.427 207.294 80.278 207.289 80.1243L207.26 79.3176C207.254 79.1368 207.022 79.0235 206.764 79.075L206.5 79.1275C206.242 79.179 206.073 79.3723 206.139 79.5413L206.431 80.2955C206.486 80.4391 206.694 80.5145 206.914 80.4708Z" fill="white"/>
<path d="M207.145 80.9548L207.075 80.9687C206.885 81.0065 206.757 81.1451 206.796 81.271L206.906 81.6297C206.941 81.7446 207.103 81.8071 207.277 81.7726C207.45 81.738 207.575 81.6182 207.562 81.4989L207.521 81.1263C207.507 80.9956 207.334 80.917 207.145 80.9548Z" fill="white"/>
<path d="M198.843 80.0015C197.101 80.0015 195.689 78.6108 195.689 76.8953C195.689 75.1798 197.101 73.7891 198.843 73.7891C200.584 73.7891 201.996 75.1798 201.996 76.8953C201.996 78.6108 200.584 80.0015 198.843 80.0015Z" fill="#2A2A2A"/>
<path d="M198.222 76.1661C198.442 76.1223 198.603 75.9733 198.598 75.8196L198.569 75.0129C198.562 74.8322 198.33 74.7188 198.072 74.7703L197.809 74.8228C197.551 74.8743 197.382 75.0677 197.447 75.2366L197.739 75.9908C197.795 76.1345 198.003 76.2099 198.222 76.1661Z" fill="white"/>
<path d="M198.457 76.6423L198.388 76.6562C198.198 76.694 198.07 76.8326 198.109 76.9585L198.218 77.3172C198.254 77.4321 198.416 77.4946 198.589 77.4601C198.762 77.4255 198.887 77.3057 198.874 77.1864L198.834 76.8138C198.819 76.6831 198.647 76.6045 198.457 76.6423Z" fill="white"/>
<path d="M259.5 150.997C258.68 148.95 255.483 143.287 249.258 137.014" stroke="#2A2A2A" stroke-width="2" stroke-linecap="round"/>
<path d="M264.403 148.585C263.833 146.776 261.527 141.926 256.864 136.999" stroke="#2A2A2A" stroke-width="2" stroke-linecap="round"/>
<path d="M234.885 70.9268C232.135 73.0639 228.77 74.2392 225.284 74.2926C221.908 74.3443 218.53 73.311 215.763 71.3756C212.987 69.4341 210.609 66.606 209.824 63.2499C209.44 61.6081 209.441 59.8884 209.861 58.2532C210.308 56.5104 211.222 55.0001 212.348 53.6167C214.42 51.0713 217.418 48.5238 220.933 49.0762C223.838 49.5327 225.652 52.3954 225.639 55.1909C225.623 58.6708 223.185 61.6448 220.61 63.7303C217.831 65.982 214.448 67.5779 210.833 67.7384C207.328 67.8941 203.805 66.6736 201.037 64.5458C199.647 63.4774 198.426 62.2485 197.367 60.8512C196.341 59.4974 195.498 57.9548 195.059 56.3062C194.847 55.5068 194.732 54.6692 194.743 53.8417C194.75 53.3318 195.187 52.8426 195.718 52.8664C196.241 52.8898 196.701 53.2951 196.693 53.8417C196.691 54.0168 196.693 54.1919 196.703 54.3668C196.708 54.4669 196.716 54.567 196.725 54.6668C196.728 54.7043 196.732 54.7417 196.736 54.7792C196.749 54.9008 196.743 54.9077 196.734 54.782C196.76 55.1544 196.87 55.5407 196.97 55.8987C197.071 56.2597 197.193 56.6144 197.333 56.9621C197.345 56.9907 197.41 57.1452 197.359 57.0266C197.312 56.9157 197.364 57.0376 197.372 57.0545C197.415 57.1505 197.458 57.2464 197.503 57.3415C197.587 57.521 197.676 57.6983 197.769 57.8735C198.141 58.5728 198.576 59.2341 199.051 59.8668C199.161 60.0129 199.068 59.8894 199.046 59.8614C199.071 59.8931 199.096 59.9249 199.121 59.9565C199.18 60.0302 199.239 60.1035 199.298 60.1763C199.434 60.3421 199.573 60.5054 199.715 60.6662C199.978 60.9642 200.251 61.2535 200.533 61.5338C200.799 61.7981 201.073 62.0543 201.354 62.3018C201.496 62.4264 201.64 62.5489 201.786 62.669C201.853 62.7241 201.92 62.7787 201.988 62.8328C202.016 62.8558 202.046 62.8786 202.074 62.9016C202.218 63.0168 201.984 62.8344 202.079 62.9058C202.712 63.3819 203.371 63.8183 204.068 64.1963C204.427 64.3907 204.793 64.5705 205.166 64.7348C205.216 64.7567 205.266 64.7781 205.316 64.7996C205.305 64.7947 205.166 64.7391 205.271 64.7798C205.359 64.8143 205.446 64.851 205.535 64.8854C205.737 64.9638 205.941 65.0376 206.146 65.1068C206.901 65.3613 207.677 65.5529 208.465 65.6755C208.54 65.6872 208.766 65.7266 208.566 65.692C208.659 65.708 208.754 65.715 208.848 65.725C209.062 65.748 209.278 65.7658 209.493 65.7784C209.885 65.8012 210.278 65.8066 210.67 65.7941C211.074 65.7812 211.492 65.7662 211.891 65.697C211.691 65.7316 211.924 65.6911 211.997 65.6796C212.092 65.6647 212.187 65.6487 212.281 65.6316C212.498 65.5924 212.714 65.5473 212.929 65.4968C213.711 65.313 214.477 65.0642 215.22 64.7601C215.257 64.7446 215.295 64.729 215.333 64.7133C215.153 64.7885 215.288 64.7319 215.325 64.7154C215.412 64.6763 215.499 64.6384 215.586 64.5988C215.784 64.5083 215.98 64.4138 216.175 64.3156C216.527 64.1374 216.874 63.9469 217.214 63.7451C217.566 63.536 217.911 63.3147 218.248 63.0824C218.405 62.9739 218.561 62.8629 218.715 62.7496C218.792 62.693 218.869 62.6357 218.945 62.5779C218.967 62.5608 219.104 62.4542 219.009 62.5293C218.908 62.6082 219.105 62.4524 219.103 62.4537C219.727 61.9571 220.322 61.4231 220.879 60.8525C221.157 60.5672 221.426 60.272 221.681 59.9658C221.741 59.8944 221.799 59.8225 221.857 59.7499C221.882 59.7188 221.907 59.6872 221.932 59.6562C222.022 59.544 221.84 59.781 221.925 59.6645C222.042 59.5038 222.161 59.3452 222.272 59.1809C222.495 58.8545 222.7 58.5165 222.884 58.1672C222.97 58.0049 223.051 57.8402 223.127 57.6731C223.148 57.6254 223.169 57.5775 223.19 57.5295C223.177 57.5609 223.116 57.7149 223.183 57.5451C223.221 57.4475 223.259 57.3501 223.294 57.2515C223.42 56.8976 223.523 56.5347 223.596 56.166C223.612 56.0873 223.627 56.0084 223.639 55.9292C223.644 55.899 223.664 55.8292 223.66 55.7944C223.662 55.8127 223.633 56.0325 223.65 55.8525C223.666 55.6867 223.68 55.5213 223.685 55.3548C223.69 55.2028 223.689 55.0506 223.683 54.8987C223.68 54.8238 223.675 54.7489 223.669 54.6741C223.666 54.6317 223.662 54.5893 223.658 54.547C223.654 54.5107 223.63 54.322 223.653 54.4878C223.675 54.6461 223.64 54.4144 223.632 54.3688C223.62 54.2971 223.606 54.2258 223.591 54.1547C223.558 54.0042 223.52 53.855 223.476 53.7076C223.432 53.5623 223.381 53.4199 223.327 53.2781C223.248 53.0692 223.393 53.4131 223.32 53.2626C223.286 53.1911 223.254 53.1189 223.218 53.0481C223.156 52.9255 223.089 52.8052 223.017 52.6879C222.949 52.5761 222.79 52.4251 222.756 52.3017C222.755 52.2982 222.887 52.4631 222.821 52.3844C222.796 52.355 222.772 52.3244 222.748 52.2948C222.705 52.2431 222.661 52.1923 222.616 52.1425C222.514 52.0292 222.406 51.9208 222.293 51.818C222.251 51.7795 222.208 51.7418 222.164 51.705C222.135 51.6805 222.105 51.6569 222.076 51.6325C222.001 51.5695 222 51.6294 222.138 51.6804C222.019 51.6363 221.895 51.5092 221.783 51.4421C221.669 51.3731 221.552 51.3092 221.432 51.2507C221.373 51.2223 221.305 51.2006 221.249 51.1668C221.485 51.3105 221.275 51.181 221.186 51.1499C220.915 51.0554 220.623 51.0359 220.355 50.9481C220.554 51.0133 220.517 50.9668 220.434 50.9607C220.393 50.9577 220.353 50.9528 220.312 50.9497C220.24 50.9442 220.168 50.9405 220.096 50.9382C219.939 50.9333 219.78 50.9362 219.623 50.9466C219.547 50.9516 219.472 50.9608 219.397 50.9667C219.263 50.9771 219.594 50.9347 219.46 50.9573C219.427 50.9628 219.394 50.9673 219.361 50.9728C219.181 51.003 219.002 51.0424 218.825 51.0899C218.663 51.1335 218.503 51.1839 218.345 51.2404C218.261 51.2705 218.179 51.3052 218.095 51.3359C217.958 51.3858 218.238 51.2699 218.106 51.3306C218.045 51.3586 217.984 51.3848 217.924 51.413C217.574 51.5764 217.236 51.7648 216.911 51.9727C216.754 52.0733 216.599 52.1784 216.448 52.2875C216.372 52.3422 216.298 52.3984 216.223 52.4543C216.377 52.339 216.261 52.4242 216.23 52.4496C216.178 52.4919 216.126 52.5334 216.074 52.5759C215.773 52.8233 215.485 53.0851 215.207 53.3574C214.633 53.9189 214.105 54.5245 213.603 55.1502C213.545 55.2221 213.489 55.295 213.431 55.3667C213.364 55.4488 213.447 55.3446 213.455 55.3342C213.422 55.379 213.388 55.4237 213.354 55.4687C213.223 55.6465 213.096 55.8281 212.976 56.0133C212.763 56.3393 212.568 56.6766 212.392 57.0239C212.303 57.1993 212.224 57.3784 212.141 57.5568C212.213 57.4015 212.151 57.5337 212.12 57.6105C212.078 57.7179 212.037 57.8261 211.998 57.935C211.875 58.2808 211.771 58.6337 211.688 58.9916C211.646 59.1744 211.609 59.3585 211.578 59.5436C211.564 59.6293 211.547 59.7156 211.539 59.8021C211.542 59.7722 211.564 59.5826 211.545 59.7648C211.54 59.8142 211.534 59.8635 211.53 59.9129C211.493 60.2828 211.48 60.6551 211.488 61.0267C211.492 61.2003 211.501 61.3738 211.514 61.547C211.521 61.6337 211.529 61.7203 211.538 61.8069C211.544 61.8564 211.55 61.9058 211.555 61.9553C211.57 62.0978 211.517 61.7126 211.556 61.9555C211.613 62.316 211.684 62.6728 211.778 63.0256C211.877 63.3967 211.997 63.7619 212.136 64.1197C212.163 64.1887 212.248 64.3917 212.171 64.2113C212.207 64.2955 212.244 64.3792 212.282 64.4625C212.364 64.6427 212.452 64.8207 212.543 64.9963C212.731 65.3557 212.938 65.705 213.161 66.0434C213.268 66.2051 213.378 66.3644 213.492 66.521C213.556 66.6079 213.621 66.6932 213.685 66.7791C213.563 66.6158 213.723 66.8266 213.77 66.8849C214.246 67.4749 214.766 68.0287 215.324 68.5416C215.607 68.8025 215.9 69.0527 216.203 69.2918C216.233 69.3157 216.263 69.3394 216.293 69.3632C216.134 69.2379 216.245 69.326 216.28 69.3515C216.352 69.4049 216.423 69.4592 216.496 69.5122C216.662 69.6333 216.831 69.7511 217.001 69.8656C217.631 70.2877 218.291 70.6642 218.975 70.9907C219.137 71.0682 219.301 71.1416 219.466 71.2146C219.507 71.233 219.631 71.2971 219.445 71.207C219.48 71.2236 219.517 71.2366 219.552 71.2511C219.659 71.2948 219.766 71.3374 219.874 71.3787C220.222 71.5118 220.575 71.6322 220.932 71.7394C221.303 71.8512 221.68 71.9485 222.059 72.031C222.239 72.0702 222.42 72.1061 222.602 72.1386C222.692 72.1549 222.783 72.1704 222.874 72.185C222.926 72.1934 222.978 72.2014 223.03 72.2092C223.059 72.2135 223.28 72.2443 223.135 72.2249C223.007 72.2078 223.287 72.2429 223.318 72.2464C223.41 72.2568 223.501 72.2663 223.593 72.275C223.789 72.2936 223.985 72.3085 224.182 72.3195C224.575 72.3417 224.969 72.3487 225.362 72.3406C225.755 72.3326 226.148 72.3096 226.54 72.2716C226.631 72.2627 226.722 72.253 226.813 72.2425C226.852 72.238 226.891 72.2332 226.93 72.2286C227.116 72.207 226.938 72.2294 226.905 72.2329C227.099 72.212 227.294 72.1751 227.486 72.1409C228.259 72.0034 229.021 71.8066 229.764 71.5511C229.937 71.4915 230.109 71.4287 230.28 71.3627C230.365 71.3297 230.45 71.2949 230.535 71.2614C230.575 71.2456 230.707 71.1882 230.519 71.269C230.567 71.2483 230.615 71.2277 230.663 71.2067C231.023 71.0486 231.377 70.8761 231.722 70.6894C232.046 70.5147 232.363 70.3275 232.672 70.1283C232.838 70.0212 233.001 69.9107 233.163 69.7967C233.238 69.7434 233.313 69.6895 233.387 69.6347C233.436 69.5989 233.675 69.4163 233.506 69.5476C233.719 69.3816 233.912 69.2619 234.195 69.2619C234.435 69.2619 234.72 69.3682 234.885 69.5476C235.206 69.8969 235.315 70.5925 234.885 70.9268Z" fill="#2A2A2A"/>
<path d="M278.97 30.5649L283.539 21.0102C284.048 19.9459 285.227 19.3777 286.377 19.6434L296.696 22.0285C297.119 22.1265 297.468 21.6898 297.278 21.2985L292.656 11.769C292.142 10.7075 292.433 9.43089 293.357 8.69786L301.656 2.11734C301.997 1.84711 301.872 1.30255 301.448 1.20694L291.116 -1.12134C289.965 -1.38069 289.149 -2.40447 289.152 -3.58422L289.181 -14.1751C289.183 -14.61 288.679 -14.8524 288.34 -14.5803L280.078 -7.95418C279.158 -7.21608 277.848 -7.21608 276.928 -7.95418L268.666 -14.5803C268.326 -14.8524 267.823 -14.61 267.824 -14.1751L267.853 -3.58422C267.857 -2.40447 267.04 -1.38069 265.889 -1.12134L255.557 1.20694C255.133 1.30255 255.009 1.84711 255.35 2.11734L263.648 8.69786C264.573 9.43089 264.864 10.7075 264.349 11.769L259.728 21.2985C259.538 21.6898 259.886 22.1265 260.31 22.0285L270.629 19.6434C271.778 19.3777 272.958 19.9459 273.467 21.0102L278.036 30.5649C278.224 30.9573 278.782 30.9573 278.97 30.5649Z" fill="white" stroke="#2A2A2A" stroke-width="2"/>
<path d="M246.898 44.8376L249.906 41.2333C250.524 40.493 251.51 40.1706 252.446 40.4029L257.002 41.5339C257.405 41.6339 257.755 41.2429 257.612 40.8533L255.995 36.4463C255.662 35.5413 255.876 34.526 256.545 33.8319L259.803 30.4516C260.091 30.1528 259.928 29.6535 259.519 29.5826L254.893 28.78C253.943 28.6152 253.171 27.9224 252.904 26.9959L251.606 22.4847C251.491 22.0858 250.977 21.9776 250.711 22.2962L247.703 25.9006C247.086 26.6408 246.1 26.9632 245.164 26.731L240.608 25.5999C240.205 25.4999 239.854 25.891 239.997 26.2806L241.615 30.6875C241.947 31.5925 241.733 32.6078 241.064 33.302L237.807 36.6822C237.519 36.981 237.682 37.4803 238.091 37.5512L242.716 38.3538C243.666 38.5187 244.438 39.2115 244.705 40.1379L246.004 44.6492C246.118 45.048 246.632 45.1562 246.898 44.8376Z" fill="white" stroke="#2A2A2A" stroke-width="2"/>
</g>
<defs>
<clipPath id="clip0_770_15406">
<rect width="300" height="174" fill="white"/>
</clipPath>
</defs>
</svg>
