<svg width="300" height="174" viewBox="0 0 300 174" fill="none" xmlns="http://www.w3.org/2000/svg">
<g clip-path="url(#clip0_770_15360)">
<rect y="-0.5" width="300" height="175" rx="8" fill="#F4811B"/>
<path d="M256.882 172.229C254.243 157.355 242.378 126.962 216.522 125.099C179.224 122.411 166.762 159.775 165.033 177.068C162.887 198.546 261.196 196.552 256.882 172.229Z" fill="#2A2A2A" stroke="#2A2A2A" stroke-width="1.2259" stroke-miterlimit="10" stroke-linecap="round"/>
<path d="M223.436 148.008C225.796 151.954 228.324 156.845 230.532 162.643C232.79 168.574 234.164 174.013 235.02 178.592" stroke="white" stroke-width="2" stroke-miterlimit="10" stroke-linecap="round"/>
<path d="M189.957 142.031C187.462 145.548 184.59 150.374 182.376 156.487C178.862 166.19 178.578 174.79 178.859 180.262" stroke="white" stroke-width="2" stroke-miterlimit="10" stroke-linecap="round"/>
<path d="M195.525 125.901C194.566 131.397 199.583 137.035 207.028 138.31C214.474 139.585 221.11 135.943 222.069 130.447C223.028 124.95 218.011 119.313 210.565 118.038C203.12 116.763 196.484 120.405 195.525 125.901Z" fill="white" stroke="#2A2A2A" stroke-width="0.914839"/>
<path d="M178.866 72.9935C180.957 71.0973 183.725 74.0931 189.1 71.6495C190.874 70.8431 202.745 49.0697 231.946 58.1195C247.003 62.7858 262.921 83.0738 255.826 107.67C250.013 127.819 225.879 136.162 209.022 131.997C168.768 122.051 169.795 81.2182 178.866 72.9935Z" fill="white" stroke="#2A2A2A" stroke-width="2" stroke-miterlimit="10" stroke-linecap="round"/>
<path d="M207.819 85.0735C206.183 85.0735 204.856 83.7471 204.856 82.111C204.856 80.4748 206.183 79.1484 207.819 79.1484C209.455 79.1484 210.781 80.4748 210.781 82.111C210.781 83.7471 209.455 85.0735 207.819 85.0735Z" fill="#2A2A2A"/>
<path d="M198.948 80.5891C197.311 80.5891 195.985 79.2628 195.985 77.6266C195.985 75.9904 197.311 74.6641 198.948 74.6641C200.584 74.6641 201.91 75.9904 201.91 77.6266C201.91 79.2628 200.584 80.5891 198.948 80.5891Z" fill="#2A2A2A"/>
<path d="M209.017 77.217C210.171 77.1385 211.582 77.4028 212.547 77.7628" stroke="#2A2A2A" stroke-width="1.25414" stroke-miterlimit="10" stroke-linecap="round"/>
<path d="M202.324 73.1093C201.912 72.2956 201.21 71.2668 200.528 70.5391" stroke="#2A2A2A" stroke-width="1.25414" stroke-miterlimit="10" stroke-linecap="round"/>
<path d="M235.17 71.9971C232.42 74.1342 229.055 75.3096 225.569 75.3629C222.193 75.4146 218.815 74.3813 216.048 72.4459C213.272 70.5044 210.894 67.6764 210.109 64.3202C209.725 62.6784 209.726 60.9587 210.146 59.3235C210.594 57.5808 211.507 56.0705 212.633 54.687C214.706 52.1416 217.703 49.5941 221.218 50.1465C224.123 50.603 225.937 53.4657 225.924 56.2612C225.908 59.7411 223.47 62.7151 220.895 64.8006C218.116 67.0524 214.733 68.6482 211.118 68.8087C207.614 68.9644 204.09 67.7439 201.322 65.6161C199.932 64.5477 198.711 63.3188 197.652 61.9216C196.626 60.5678 195.783 59.0251 195.344 57.3765C195.132 56.5772 195.017 55.7395 195.028 54.912C195.035 54.4021 195.472 53.9129 196.003 53.9367C196.526 53.9601 196.986 54.3654 196.979 54.912C196.976 55.0872 196.979 55.2622 196.988 55.4371C196.993 55.5372 197.001 55.6373 197.01 55.7371C197.014 55.7746 197.017 55.812 197.021 55.8495C197.035 55.9712 197.028 55.978 197.019 55.8523C197.045 56.2247 197.155 56.611 197.255 56.969C197.356 57.33 197.479 57.6848 197.618 58.0324C197.63 58.061 197.695 58.2155 197.644 58.0969C197.597 57.9861 197.649 58.1079 197.657 58.1248C197.7 58.2208 197.743 58.3167 197.788 58.4119C197.872 58.5913 197.961 58.7686 198.054 58.9438C198.426 59.6431 198.861 60.3045 199.336 60.9371C199.446 61.0832 199.354 60.9597 199.332 60.9317C199.356 60.9634 199.381 60.9952 199.406 61.0268C199.465 61.1006 199.524 61.1738 199.584 61.2466C199.719 61.4124 199.859 61.5757 200 61.7365C200.263 62.0345 200.536 62.3239 200.818 62.6041C201.084 62.8684 201.358 63.1246 201.64 63.3721C201.781 63.4967 201.925 63.6192 202.071 63.7393C202.138 63.7944 202.205 63.849 202.273 63.9031C202.302 63.9261 202.331 63.9489 202.359 63.9719C202.504 64.0871 202.269 63.9047 202.364 63.9761C202.998 64.4522 203.656 64.8886 204.353 65.2666C204.712 65.461 205.078 65.6408 205.452 65.8051C205.501 65.827 205.551 65.8484 205.601 65.8699C205.59 65.8651 205.452 65.8094 205.556 65.8501C205.644 65.8846 205.732 65.9213 205.82 65.9557C206.022 66.0341 206.226 66.1079 206.431 66.1771C207.186 66.4316 207.963 66.6232 208.75 66.7458C208.825 66.7576 209.051 66.7969 208.851 66.7623C208.944 66.7783 209.039 66.7853 209.133 66.7953C209.348 66.8183 209.563 66.8362 209.779 66.8487C210.17 66.8715 210.563 66.8769 210.956 66.8644C211.359 66.8515 211.777 66.8365 212.176 66.7673C211.976 66.8019 212.209 66.7614 212.282 66.7499C212.377 66.735 212.472 66.719 212.566 66.7019C212.783 66.6627 212.999 66.6176 213.214 66.5672C213.996 66.3834 214.762 66.1345 215.505 65.8304C215.543 65.8149 215.58 65.7993 215.618 65.7836C215.438 65.8588 215.574 65.8022 215.61 65.7857C215.697 65.7466 215.784 65.7087 215.871 65.6691C216.069 65.5786 216.265 65.4841 216.46 65.3859C216.813 65.2077 217.159 65.0172 217.499 64.8154C217.851 64.6063 218.196 64.385 218.533 64.1527C218.69 64.0442 218.846 63.9332 219 63.8199C219.077 63.7633 219.154 63.706 219.23 63.6482C219.252 63.6311 219.389 63.5245 219.294 63.5996C219.193 63.6785 219.39 63.5227 219.388 63.5241C220.012 63.0274 220.607 62.4934 221.164 61.9228C221.442 61.6375 221.711 61.3423 221.966 61.0361C222.026 60.9647 222.085 60.8928 222.143 60.8202C222.167 60.7891 222.192 60.7575 222.217 60.7265C222.307 60.6143 222.125 60.8514 222.21 60.7348C222.327 60.5741 222.446 60.4155 222.558 60.2512C222.78 59.9248 222.986 59.5868 223.17 59.2375C223.255 59.0752 223.336 58.9105 223.412 58.7434C223.434 58.6957 223.454 58.6478 223.476 58.5999C223.462 58.6312 223.402 58.7852 223.468 58.6154C223.506 58.5179 223.544 58.4204 223.579 58.3218C223.705 57.9679 223.808 57.605 223.882 57.2363C223.897 57.1576 223.912 57.0787 223.925 56.9995C223.929 56.9693 223.949 56.8995 223.945 56.8648C223.947 56.883 223.918 57.1028 223.935 56.9228C223.951 56.757 223.965 56.5917 223.97 56.4251C223.975 56.2731 223.974 56.1209 223.968 55.969C223.965 55.8941 223.96 55.8192 223.954 55.7444C223.951 55.702 223.947 55.6597 223.943 55.6173C223.939 55.581 223.915 55.3924 223.938 55.5581C223.96 55.7164 223.926 55.4847 223.918 55.4391C223.905 55.3675 223.891 55.2961 223.876 55.225C223.843 55.0745 223.805 54.9253 223.761 54.7779C223.717 54.6326 223.666 54.4903 223.612 54.3484C223.533 54.1395 223.678 54.4834 223.606 54.3329C223.571 54.2614 223.539 54.1892 223.503 54.1184C223.441 53.9958 223.374 53.8756 223.302 53.7582C223.234 53.6464 223.075 53.4954 223.041 53.372C223.04 53.3685 223.172 53.5334 223.106 53.4548C223.081 53.4253 223.058 53.3947 223.033 53.3651C222.99 53.3134 222.946 53.2626 222.901 53.2128C222.799 53.0995 222.691 52.9911 222.578 52.8883C222.536 52.8499 222.493 52.8122 222.449 52.7753C222.42 52.7508 222.39 52.7272 222.361 52.7028C222.286 52.6398 222.285 52.6998 222.423 52.7507C222.304 52.7066 222.18 52.5795 222.069 52.5124C221.954 52.4434 221.837 52.3795 221.717 52.3211C221.659 52.2926 221.59 52.271 221.534 52.2371C221.77 52.3808 221.56 52.2514 221.471 52.2202C221.2 52.1257 220.908 52.1062 220.64 52.0184C220.839 52.0836 220.802 52.0371 220.719 52.031C220.678 52.028 220.638 52.0232 220.597 52.02C220.526 52.0145 220.454 52.0108 220.382 52.0085C220.224 52.0036 220.066 52.0065 219.908 52.0169C219.832 52.0219 219.757 52.0311 219.682 52.037C219.548 52.0474 219.879 52.005 219.745 52.0276C219.712 52.0331 219.679 52.0376 219.646 52.0431C219.466 52.0734 219.287 52.1127 219.11 52.1603C218.949 52.2039 218.788 52.2542 218.631 52.3107C218.546 52.3409 218.464 52.3756 218.38 52.4062C218.243 52.4561 218.523 52.3402 218.391 52.401C218.33 52.4289 218.269 52.4551 218.209 52.4833C217.859 52.6468 217.521 52.8352 217.196 53.043C217.039 53.1436 216.884 53.2487 216.733 53.3578C216.657 53.4125 216.583 53.4688 216.508 53.5247C216.662 53.4093 216.546 53.4945 216.515 53.5199C216.463 53.5622 216.411 53.6037 216.359 53.6463C216.059 53.8936 215.77 54.1554 215.492 54.4277C214.919 54.9892 214.39 55.5948 213.888 56.2205C213.83 56.2924 213.774 56.3653 213.716 56.4371C213.65 56.5192 213.733 56.4149 213.74 56.4045C213.707 56.4493 213.673 56.494 213.639 56.5391C213.508 56.7169 213.382 56.8985 213.261 57.0836C213.048 57.4096 212.853 57.7469 212.677 58.0942C212.588 58.2696 212.509 58.4487 212.427 58.6271C212.498 58.4718 212.436 58.6041 212.406 58.6808C212.363 58.7882 212.322 58.8964 212.283 59.0053C212.16 59.3511 212.056 59.7041 211.973 60.0619C211.931 60.2447 211.895 60.4288 211.864 60.6139C211.849 60.6996 211.832 60.7859 211.824 60.8724C211.827 60.8425 211.849 60.6529 211.83 60.8351C211.825 60.8845 211.82 60.9338 211.815 60.9832C211.778 61.3532 211.765 61.7254 211.773 62.097C211.777 62.2706 211.786 62.4441 211.799 62.6173C211.806 62.704 211.814 62.7907 211.823 62.8772C211.829 62.9267 211.835 62.9761 211.84 63.0256C211.855 63.1681 211.802 62.7829 211.841 63.0258C211.898 63.3863 211.97 63.7432 212.063 64.096C212.162 64.467 212.282 64.8322 212.422 65.19C212.449 65.259 212.533 65.462 212.456 65.2817C212.492 65.3658 212.529 65.4495 212.567 65.5328C212.649 65.713 212.737 65.891 212.828 66.0667C213.016 66.426 213.223 66.7753 213.446 67.1137C213.553 67.2754 213.664 67.4347 213.778 67.5913C213.841 67.6782 213.906 67.7635 213.97 67.8494C213.848 67.6862 214.009 67.8969 214.056 67.9552C214.531 68.5452 215.051 69.0991 215.609 69.6119C215.892 69.8728 216.186 70.123 216.488 70.3621C216.518 70.386 216.548 70.4097 216.579 70.4335C216.42 70.3082 216.53 70.3963 216.565 70.4218C216.637 70.4752 216.709 70.5296 216.781 70.5825C216.947 70.7036 217.116 70.8214 217.287 70.9359C217.916 71.358 218.576 71.7345 219.26 72.061C219.422 72.1385 219.586 72.2119 219.751 72.2849C219.792 72.3033 219.917 72.3674 219.73 72.2773C219.765 72.2939 219.802 72.3069 219.837 72.3214C219.944 72.3651 220.052 72.4077 220.16 72.449C220.507 72.5821 220.86 72.7025 221.217 72.8097C221.589 72.9215 221.965 73.0188 222.344 73.1013C222.525 73.1405 222.705 73.1764 222.887 73.2089C222.978 73.2252 223.068 73.2407 223.159 73.2553C223.211 73.2637 223.263 73.2717 223.315 73.2795C223.344 73.2838 223.565 73.3146 223.42 73.2952C223.292 73.2781 223.572 73.3132 223.604 73.3167C223.695 73.3271 223.786 73.3366 223.878 73.3453C224.074 73.3639 224.271 73.3788 224.467 73.3899C224.86 73.412 225.254 73.419 225.648 73.411C226.041 73.403 226.434 73.3799 226.825 73.3419C226.916 73.333 227.007 73.3233 227.098 73.3128C227.137 73.3083 227.176 73.3035 227.215 73.2989C227.401 73.2773 227.223 73.2997 227.19 73.3032C227.384 73.2823 227.579 73.2454 227.772 73.2112C228.544 73.0738 229.306 72.8769 230.049 72.6214C230.222 72.5618 230.394 72.499 230.565 72.433C230.65 72.4 230.735 72.3652 230.82 72.3317C230.86 72.3159 230.992 72.2585 230.804 72.3394C230.853 72.3186 230.901 72.298 230.949 72.277C231.308 72.1189 231.662 71.9464 232.007 71.7597C232.331 71.585 232.648 71.3978 232.957 71.1986C233.123 71.0916 233.286 70.981 233.448 70.867C233.523 70.8138 233.598 70.7598 233.672 70.705C233.721 70.6692 233.96 70.4867 233.791 70.6179C234.005 70.4519 234.198 70.3322 234.48 70.3322C234.72 70.3322 235.005 70.4385 235.17 70.6179C235.491 70.9672 235.6 71.6628 235.17 71.9971Z" fill="#2A2A2A"/>
<path d="M243.406 110.47C244.021 111.259 246.885 114.934 251.259 115.315C257.582 115.866 264.112 109.275 264.894 102.177C265.772 94.2099 261.091 87.1747 254.438 86.4636C249.178 85.9013 244.964 90.301 244.41 90.9017" fill="white"/>
<path d="M243.406 110.47C244.021 111.259 246.885 114.934 251.259 115.315C257.582 115.866 264.112 109.275 264.894 102.177C265.772 94.2099 261.091 87.1747 254.438 86.4636C249.178 85.9013 244.964 90.301 244.41 90.9017" stroke="#2A2A2A" stroke-width="2" stroke-miterlimit="10" stroke-linecap="round"/>
<path d="M260.461 99.5933C259.453 98.9125 257.245 97.6202 254.139 97.3533C250.401 97.0321 247.598 98.3872 246.543 98.9661" stroke="#2A2A2A" stroke-width="2" stroke-miterlimit="10" stroke-linecap="round"/>
<path d="M258.524 150.083C257.703 148.036 254.507 142.373 248.282 136.1" stroke="#2A2A2A" stroke-width="2" stroke-linecap="round"/>
<path d="M263.431 147.671C262.86 145.862 260.555 141.012 255.891 136.084" stroke="#2A2A2A" stroke-width="2" stroke-linecap="round"/>
<path d="M290.456 39.7332C290.406 40.3164 289.623 40.4694 289.357 39.948L282.488 26.4849C282.403 26.3195 282.245 26.2042 282.062 26.1747L270.281 24.2769C269.746 24.1908 269.608 23.4855 270.071 23.2044L280.27 17.0092C280.429 16.9128 280.532 16.7465 280.548 16.5614L281.84 1.50248C281.89 0.919294 282.673 0.766268 282.939 1.28765L289.808 14.7508C289.893 14.9162 290.051 15.0315 290.234 15.061L302.015 16.9588C302.55 17.0449 302.688 17.7502 302.225 18.0313L292.026 24.2264C291.868 24.3229 291.764 24.4892 291.748 24.6743L290.456 39.7332Z" fill="white" stroke="#2A2A2A" stroke-width="2" stroke-miterlimit="10"/>
<path d="M263.202 53.619C263.152 54.2022 262.369 54.3552 262.103 53.8338L256.968 43.7699C256.884 43.6045 256.726 43.4892 256.542 43.4597L247.744 42.0424C247.209 41.9563 247.071 41.251 247.534 40.9699L255.151 36.3431C255.309 36.2467 255.413 36.0803 255.429 35.8953L256.395 24.6385C256.445 24.0554 257.228 23.9023 257.494 24.4237L262.628 34.4876C262.713 34.653 262.871 34.7683 263.054 34.7978L271.853 36.2152C272.387 36.3013 272.525 37.0065 272.063 37.2876L264.446 41.9144C264.287 42.0108 264.184 42.1772 264.168 42.3622L263.202 53.619Z" fill="white" stroke="#2A2A2A" stroke-width="2" stroke-miterlimit="10"/>
</g>
<defs>
<clipPath id="clip0_770_15360">
<rect width="300" height="174" fill="white"/>
</clipPath>
</defs>
</svg>
